<?xml version="1.0" encoding="ISO8859-1"?>
<svg xmlns="http://www.w3.org/2000/svg" xmlns:xlink="http://www.w3.org/1999/xlink" width="288px" height="252px" viewBox="0 0 288 252" version="1.1" id="Fig:dens">
  <metadata xmlns:gridsvg="http://www.stat.auckland.ac.nz/~paul/R/gridSVG/">
    <gridsvg:generator name="gridSVG" version="1.7-2" time="2020-05-02 13:55:21"/>
    <gridsvg:argument name="name" value="./results/QCDir.Norm/dens.svg"/>
    <gridsvg:argument name="exportCoords" value="none"/>
    <gridsvg:argument name="exportMappings" value="none"/>
    <gridsvg:argument name="exportJS" value="none"/>
    <gridsvg:argument name="res" value="72"/>
    <gridsvg:argument name="prefix" value="Fig:dens"/>
    <gridsvg:argument name="addClasses" value="FALSE"/>
    <gridsvg:argument name="indent" value="TRUE"/>
    <gridsvg:argument name="htmlWrapper" value="FALSE"/>
    <gridsvg:argument name="usePaths" value="none"/>
    <gridsvg:argument name="uniqueNames" value="TRUE"/>
    <gridsvg:separator name="id.sep" value="."/>
    <gridsvg:separator name="gPath.sep" value="::"/>
    <gridsvg:separator name="vpPath.sep" value="::"/>
  </metadata>
  <g transform="translate(0, 252) scale(1, -1)">
    <g id="Fig:densgridSVG" fill="none" stroke="rgb(0,0,0)" stroke-dasharray="none" stroke-width="0.75" font-size="12" font-family="Helvetica, Arial, FreeSans, Liberation Sans, Nimbus Sans L, sans-serif" opacity="1" stroke-linecap="round" stroke-linejoin="round" stroke-miterlimit="10" stroke-opacity="1" fill-opacity="0" font-weight="normal" font-style="normal">
      <g id="Fig:densplot_01.background.1">
        <rect id="Fig:densplot_01.background.1.1" x="0" y="0" width="288" height="252" transform="" fill="none" stroke="none" stroke-opacity="0" fill-opacity="0"/>
      </g>
      <g id="Fig:densplot_01.toplevel.vp.1" font-size="12">
        <g id="Fig:densplot_01.ylab.vp.1">
          <g id="Fig:densplot_01.ylab.1">
            <g id="Fig:densplot_01.ylab.1.1" transform="translate(10.31, 138.09)" stroke-width="0.1">
              <g id="Fig:densplot_01.ylab.1.1.scale" transform="scale(1, -1)">
                <text x="0" y="0" id="Fig:densplot_01.ylab.1.1.text" transform="rotate(-90)" text-anchor="middle" opacity="1" stroke="rgb(0,0,0)" fill="rgb(0,0,0)" stroke-opacity="1" fill-opacity="1" font-size="12" font-weight="normal" font-style="normal">
                  <tspan id="Fig:densplot_01.ylab.1.1.tspan.1" dy="4.31" x="0">Density</tspan>
                </text>
              </g>
            </g>
          </g>
        </g>
        <g id="Fig:densplot_01.figure.vp.1"/>
        <defs>
          <clipPath id="Fig:densplot_01.panel.1.1.vp.1.clipPath">
            <rect x="44.8" y="42.19" width="231.2" height="191.81" fill="none" stroke="none"/>
          </clipPath>
        </defs>
        <g id="Fig:densplot_01.panel.1.1.vp.1" clip-path="url(#Fig:densplot_01.panel.1.1.vp.1.clipPath)"/>
        <g id="Fig:densplot_01.strip.1.1.off.vp.1"/>
        <g id="Fig:densplot_01.strip.left.1.1.off.vp.1">
          <g id="Fig:densplot_01.ticks.left.panel.1.1.1">
            <polyline id="Fig:densplot_01.ticks.left.panel.1.1.1.1" points="44.8,53.95 39.13,53.95" stroke="rgb(0,0,0)" opacity="1" stroke-dasharray="none" stroke-width="0.75" stroke-opacity="1" fill="none"/>
            <polyline id="Fig:densplot_01.ticks.left.panel.1.1.1.2" points="44.8,89.67 39.13,89.67" stroke="rgb(0,0,0)" opacity="1" stroke-dasharray="none" stroke-width="0.75" stroke-opacity="1" fill="none"/>
            <polyline id="Fig:densplot_01.ticks.left.panel.1.1.1.3" points="44.8,125.38 39.13,125.38" stroke="rgb(0,0,0)" opacity="1" stroke-dasharray="none" stroke-width="0.75" stroke-opacity="1" fill="none"/>
            <polyline id="Fig:densplot_01.ticks.left.panel.1.1.1.4" points="44.8,161.09 39.13,161.09" stroke="rgb(0,0,0)" opacity="1" stroke-dasharray="none" stroke-width="0.75" stroke-opacity="1" fill="none"/>
            <polyline id="Fig:densplot_01.ticks.left.panel.1.1.1.5" points="44.8,196.8 39.13,196.8" stroke="rgb(0,0,0)" opacity="1" stroke-dasharray="none" stroke-width="0.75" stroke-opacity="1" fill="none"/>
            <polyline id="Fig:densplot_01.ticks.left.panel.1.1.1.6" points="44.8,232.51 39.13,232.51" stroke="rgb(0,0,0)" opacity="1" stroke-dasharray="none" stroke-width="0.75" stroke-opacity="1" fill="none"/>
          </g>
          <g id="Fig:densplot_01.ticklabels.left.panel.1.1.1">
            <g id="Fig:densplot_01.ticklabels.left.panel.1.1.1.1" transform="translate(33.47, 53.95)" stroke-width="0.1">
              <g id="Fig:densplot_01.ticklabels.left.panel.1.1.1.1.scale" transform="scale(1, -1)">
                <text x="0" y="0" id="Fig:densplot_01.ticklabels.left.panel.1.1.1.1.text" transform="rotate(-90)" text-anchor="middle" stroke="rgb(0,0,0)" opacity="1" fill="rgb(0,0,0)" stroke-opacity="1" fill-opacity="1" font-size="9.6" font-weight="normal" font-style="normal">
                  <tspan id="Fig:densplot_01.ticklabels.left.panel.1.1.1.1.tspan.1" dy="0" x="0">0.00</tspan>
                </text>
              </g>
            </g>
            <g id="Fig:densplot_01.ticklabels.left.panel.1.1.1.2" transform="translate(33.47, 89.67)" stroke-width="0.1">
              <g id="Fig:densplot_01.ticklabels.left.panel.1.1.1.2.scale" transform="scale(1, -1)">
                <text x="0" y="0" id="Fig:densplot_01.ticklabels.left.panel.1.1.1.2.text" transform="rotate(-90)" text-anchor="middle" stroke="rgb(0,0,0)" opacity="1" fill="rgb(0,0,0)" stroke-opacity="1" fill-opacity="1" font-size="9.6" font-weight="normal" font-style="normal">
                  <tspan id="Fig:densplot_01.ticklabels.left.panel.1.1.1.2.tspan.1" dy="0" x="0">0.05</tspan>
                </text>
              </g>
            </g>
            <g id="Fig:densplot_01.ticklabels.left.panel.1.1.1.3" transform="translate(33.47, 125.38)" stroke-width="0.1">
              <g id="Fig:densplot_01.ticklabels.left.panel.1.1.1.3.scale" transform="scale(1, -1)">
                <text x="0" y="0" id="Fig:densplot_01.ticklabels.left.panel.1.1.1.3.text" transform="rotate(-90)" text-anchor="middle" stroke="rgb(0,0,0)" opacity="1" fill="rgb(0,0,0)" stroke-opacity="1" fill-opacity="1" font-size="9.6" font-weight="normal" font-style="normal">
                  <tspan id="Fig:densplot_01.ticklabels.left.panel.1.1.1.3.tspan.1" dy="0" x="0">0.10</tspan>
                </text>
              </g>
            </g>
            <g id="Fig:densplot_01.ticklabels.left.panel.1.1.1.4" transform="translate(33.47, 161.09)" stroke-width="0.1">
              <g id="Fig:densplot_01.ticklabels.left.panel.1.1.1.4.scale" transform="scale(1, -1)">
                <text x="0" y="0" id="Fig:densplot_01.ticklabels.left.panel.1.1.1.4.text" transform="rotate(-90)" text-anchor="middle" stroke="rgb(0,0,0)" opacity="1" fill="rgb(0,0,0)" stroke-opacity="1" fill-opacity="1" font-size="9.6" font-weight="normal" font-style="normal">
                  <tspan id="Fig:densplot_01.ticklabels.left.panel.1.1.1.4.tspan.1" dy="0" x="0">0.15</tspan>
                </text>
              </g>
            </g>
            <g id="Fig:densplot_01.ticklabels.left.panel.1.1.1.5" transform="translate(33.47, 196.8)" stroke-width="0.1">
              <g id="Fig:densplot_01.ticklabels.left.panel.1.1.1.5.scale" transform="scale(1, -1)">
                <text x="0" y="0" id="Fig:densplot_01.ticklabels.left.panel.1.1.1.5.text" transform="rotate(-90)" text-anchor="middle" stroke="rgb(0,0,0)" opacity="1" fill="rgb(0,0,0)" stroke-opacity="1" fill-opacity="1" font-size="9.6" font-weight="normal" font-style="normal">
                  <tspan id="Fig:densplot_01.ticklabels.left.panel.1.1.1.5.tspan.1" dy="0" x="0">0.20</tspan>
                </text>
              </g>
            </g>
          </g>
        </g>
        <g id="Fig:densplot_01.panel.1.1.off.vp.1">
          <g id="Fig:densplot_01.ticks.bottom.panel.1.1.1">
            <polyline id="Fig:densplot_01.ticks.bottom.panel.1.1.1.1" points="59.13,42.19 59.13,36.52" stroke="rgb(0,0,0)" opacity="1" stroke-dasharray="none" stroke-width="0.75" stroke-opacity="1" fill="none"/>
            <polyline id="Fig:densplot_01.ticks.bottom.panel.1.1.1.2" points="99.79,42.19 99.79,36.52" stroke="rgb(0,0,0)" opacity="1" stroke-dasharray="none" stroke-width="0.75" stroke-opacity="1" fill="none"/>
            <polyline id="Fig:densplot_01.ticks.bottom.panel.1.1.1.3" points="140.45,42.19 140.45,36.52" stroke="rgb(0,0,0)" opacity="1" stroke-dasharray="none" stroke-width="0.75" stroke-opacity="1" fill="none"/>
            <polyline id="Fig:densplot_01.ticks.bottom.panel.1.1.1.4" points="181.11,42.19 181.11,36.52" stroke="rgb(0,0,0)" opacity="1" stroke-dasharray="none" stroke-width="0.75" stroke-opacity="1" fill="none"/>
            <polyline id="Fig:densplot_01.ticks.bottom.panel.1.1.1.5" points="221.77,42.19 221.77,36.52" stroke="rgb(0,0,0)" opacity="1" stroke-dasharray="none" stroke-width="0.75" stroke-opacity="1" fill="none"/>
            <polyline id="Fig:densplot_01.ticks.bottom.panel.1.1.1.6" points="262.44,42.19 262.44,36.52" stroke="rgb(0,0,0)" opacity="1" stroke-dasharray="none" stroke-width="0.75" stroke-opacity="1" fill="none"/>
          </g>
          <g id="Fig:densplot_01.ticklabels.bottom.panel.1.1.1">
            <g id="Fig:densplot_01.ticklabels.bottom.panel.1.1.1.1" transform="translate(59.13, 30.85)" stroke-width="0.1">
              <g id="Fig:densplot_01.ticklabels.bottom.panel.1.1.1.1.scale" transform="scale(1, -1)">
                <text x="0" y="0" id="Fig:densplot_01.ticklabels.bottom.panel.1.1.1.1.text" text-anchor="middle" stroke="rgb(0,0,0)" opacity="1" fill="rgb(0,0,0)" stroke-opacity="1" fill-opacity="1" font-size="9.6" font-weight="normal" font-style="normal">
                  <tspan id="Fig:densplot_01.ticklabels.bottom.panel.1.1.1.1.tspan.1" dy="7.18" x="0">2</tspan>
                </text>
              </g>
            </g>
            <g id="Fig:densplot_01.ticklabels.bottom.panel.1.1.1.2" transform="translate(99.79, 30.85)" stroke-width="0.1">
              <g id="Fig:densplot_01.ticklabels.bottom.panel.1.1.1.2.scale" transform="scale(1, -1)">
                <text x="0" y="0" id="Fig:densplot_01.ticklabels.bottom.panel.1.1.1.2.text" text-anchor="middle" stroke="rgb(0,0,0)" opacity="1" fill="rgb(0,0,0)" stroke-opacity="1" fill-opacity="1" font-size="9.6" font-weight="normal" font-style="normal">
                  <tspan id="Fig:densplot_01.ticklabels.bottom.panel.1.1.1.2.tspan.1" dy="7.18" x="0">4</tspan>
                </text>
              </g>
            </g>
            <g id="Fig:densplot_01.ticklabels.bottom.panel.1.1.1.3" transform="translate(140.45, 30.85)" stroke-width="0.1">
              <g id="Fig:densplot_01.ticklabels.bottom.panel.1.1.1.3.scale" transform="scale(1, -1)">
                <text x="0" y="0" id="Fig:densplot_01.ticklabels.bottom.panel.1.1.1.3.text" text-anchor="middle" stroke="rgb(0,0,0)" opacity="1" fill="rgb(0,0,0)" stroke-opacity="1" fill-opacity="1" font-size="9.6" font-weight="normal" font-style="normal">
                  <tspan id="Fig:densplot_01.ticklabels.bottom.panel.1.1.1.3.tspan.1" dy="7.18" x="0">6</tspan>
                </text>
              </g>
            </g>
            <g id="Fig:densplot_01.ticklabels.bottom.panel.1.1.1.4" transform="translate(181.11, 30.85)" stroke-width="0.1">
              <g id="Fig:densplot_01.ticklabels.bottom.panel.1.1.1.4.scale" transform="scale(1, -1)">
                <text x="0" y="0" id="Fig:densplot_01.ticklabels.bottom.panel.1.1.1.4.text" text-anchor="middle" stroke="rgb(0,0,0)" opacity="1" fill="rgb(0,0,0)" stroke-opacity="1" fill-opacity="1" font-size="9.6" font-weight="normal" font-style="normal">
                  <tspan id="Fig:densplot_01.ticklabels.bottom.panel.1.1.1.4.tspan.1" dy="7.18" x="0">8</tspan>
                </text>
              </g>
            </g>
            <g id="Fig:densplot_01.ticklabels.bottom.panel.1.1.1.5" transform="translate(221.77, 30.85)" stroke-width="0.1">
              <g id="Fig:densplot_01.ticklabels.bottom.panel.1.1.1.5.scale" transform="scale(1, -1)">
                <text x="0" y="0" id="Fig:densplot_01.ticklabels.bottom.panel.1.1.1.5.text" text-anchor="middle" stroke="rgb(0,0,0)" opacity="1" fill="rgb(0,0,0)" stroke-opacity="1" fill-opacity="1" font-size="9.6" font-weight="normal" font-style="normal">
                  <tspan id="Fig:densplot_01.ticklabels.bottom.panel.1.1.1.5.tspan.1" dy="7.18" x="0">10</tspan>
                </text>
              </g>
            </g>
            <g id="Fig:densplot_01.ticklabels.bottom.panel.1.1.1.6" transform="translate(262.44, 30.85)" stroke-width="0.1">
              <g id="Fig:densplot_01.ticklabels.bottom.panel.1.1.1.6.scale" transform="scale(1, -1)">
                <text x="0" y="0" id="Fig:densplot_01.ticklabels.bottom.panel.1.1.1.6.text" text-anchor="middle" stroke="rgb(0,0,0)" opacity="1" fill="rgb(0,0,0)" stroke-opacity="1" fill-opacity="1" font-size="9.6" font-weight="normal" font-style="normal">
                  <tspan id="Fig:densplot_01.ticklabels.bottom.panel.1.1.1.6.tspan.1" dy="7.18" x="0">12</tspan>
                </text>
              </g>
            </g>
          </g>
        </g>
        <defs>
          <clipPath id="Fig:densplot_01.panel.1.1.vp.2.clipPath">
            <rect x="44.8" y="42.19" width="231.2" height="191.81" fill="none" stroke="none"/>
          </clipPath>
        </defs>
        <g id="Fig:densplot_01.panel.1.1.vp.2" clip-path="url(#Fig:densplot_01.panel.1.1.vp.2.clipPath)">
          <g id="Fig:densplot_01.xyplot.lines.group.1.panel.1.1.1">
            <polyline id="Fig:densplot_01.xyplot.lines.group.1.panel.1.1.1.1" points="59.86,53.98 60.25,53.99 60.65,54 61.04,54.02 61.43,54.03 61.83,54.06 62.22,54.09 62.61,54.12 63.01,54.17 63.4,54.22 63.79,54.29 64.19,54.37 64.58,54.46 64.97,54.58 65.37,54.71 65.76,54.87 66.15,55.06 66.55,55.28 66.94,55.53 67.33,55.82 67.73,56.15 68.12,56.52 68.51,56.94 68.91,57.42 69.3,57.94 69.69,58.52 70.09,59.16 70.48,59.85 70.87,60.6 71.27,61.42 71.66,62.29 72.05,63.22 72.45,64.2 72.84,65.23 73.23,66.31 73.63,67.44 74.02,68.6 74.41,69.8 74.81,71.03 75.2,72.28 75.59,73.54 75.99,74.82 76.38,76.1 76.77,77.38 77.17,78.65 77.56,79.91 77.96,81.15 78.35,82.37 78.74,83.57 79.14,84.73 79.53,85.86 79.92,86.97 80.32,88.04 80.71,89.08 81.1,90.08 81.5,91.04 81.89,91.98 82.28,92.88 82.68,93.76 83.07,94.61 83.46,95.43 83.86,96.23 84.25,97.01 84.64,97.77 85.04,98.51 85.43,99.23 85.82,99.94 86.22,100.63 86.61,101.31 87,101.98 87.4,102.63 87.79,103.28 88.18,103.91 88.58,104.53 88.97,105.14 89.36,105.74 89.76,106.34 90.15,106.92 90.54,107.49 90.94,108.05 91.33,108.6 91.72,109.14 92.12,109.67 92.51,110.2 92.9,110.71 93.3,111.22 93.69,111.72 94.08,112.21 94.48,112.69 94.87,113.17 95.26,113.63 95.66,114.09 96.05,114.53 96.44,114.96 96.84,115.38 97.23,115.79 97.62,116.18 98.02,116.56 98.41,116.92 98.8,117.27 99.2,117.6 99.59,117.92 99.98,118.23 100.38,118.52 100.77,118.8 101.16,119.08 101.56,119.35 101.95,119.61 102.35,119.88 102.74,120.15 103.13,120.43 103.53,120.72 103.92,121.02 104.31,121.34 104.71,121.68 105.1,122.04 105.49,122.42 105.89,122.84 106.28,123.28 106.67,123.76 107.07,124.27 107.46,124.81 107.85,125.39 108.25,126 108.64,126.65 109.03,127.33 109.43,128.04 109.82,128.79 110.21,129.56 110.61,130.37 111,131.2 111.39,132.06 111.79,132.93 112.18,133.83 112.57,134.74 112.97,135.67 113.36,136.61 113.75,137.55 114.15,138.5 114.54,139.45 114.93,140.4 115.33,141.34 115.72,142.28 116.11,143.2 116.51,144.11 116.9,145 117.29,145.88 117.69,146.73 118.08,147.57 118.47,148.39 118.87,149.18 119.26,149.95 119.65,150.7 120.05,151.43 120.44,152.15 120.83,152.84 121.23,153.52 121.62,154.19 122.01,154.84 122.41,155.49 122.8,156.13 123.19,156.77 123.59,157.41 123.98,158.05 124.37,158.7 124.77,159.36 125.16,160.03 125.55,160.71 125.95,161.41 126.34,162.13 126.74,162.87 127.13,163.63 127.52,164.41 127.92,165.22 128.31,166.05 128.7,166.91 129.1,167.79 129.49,168.7 129.88,169.62 130.28,170.57 130.67,171.54 131.06,172.53 131.46,173.53 131.85,174.55 132.24,175.58 132.64,176.61 133.03,177.65 133.42,178.69 133.82,179.73 134.21,180.77 134.6,181.79 135,182.81 135.39,183.81 135.78,184.8 136.18,185.77 136.57,186.71 136.96,187.64 137.36,188.54 137.75,189.42 138.14,190.28 138.54,191.11 138.93,191.91 139.32,192.69 139.72,193.46 140.11,194.2 140.5,194.92 140.9,195.62 141.29,196.31 141.68,196.99 142.08,197.66 142.47,198.32 142.86,198.97 143.26,199.63 143.65,200.28 144.04,200.93 144.44,201.59 144.83,202.24 145.22,202.91 145.62,203.57 146.01,204.24 146.4,204.92 146.8,205.61 147.19,206.29 147.58,206.98 147.98,207.68 148.37,208.38 148.76,209.08 149.16,209.78 149.55,210.48 149.94,211.18 150.34,211.87 150.73,212.56 151.13,213.24 151.52,213.91 151.91,214.57 152.31,215.21 152.7,215.84 153.09,216.45 153.49,217.03 153.88,217.59 154.27,218.12 154.67,218.62 155.06,219.09 155.45,219.53 155.85,219.93 156.24,220.29 156.63,220.61 157.03,220.9 157.42,221.16 157.81,221.38 158.21,221.56 158.6,221.71 158.99,221.84 159.39,221.94 159.78,222.02 160.17,222.08 160.57,222.13 160.96,222.16 161.35,222.18 161.75,222.2 162.14,222.21 162.53,222.22 162.93,222.22 163.32,222.22 163.71,222.22 164.11,222.21 164.5,222.2 164.89,222.17 165.29,222.14 165.68,222.08 166.07,222.01 166.47,221.91 166.86,221.78 167.25,221.62 167.65,221.42 168.04,221.18 168.43,220.88 168.83,220.54 169.22,220.15 169.61,219.7 170.01,219.2 170.4,218.63 170.79,218 171.19,217.32 171.58,216.57 171.97,215.77 172.37,214.92 172.76,214.01 173.15,213.04 173.55,212.02 173.94,210.96 174.33,209.86 174.73,208.71 175.12,207.53 175.51,206.31 175.91,205.05 176.3,203.77 176.7,202.45 177.09,201.11 177.48,199.74 177.88,198.35 178.27,196.92 178.66,195.48 179.06,194.01 179.45,192.52 179.84,191 180.24,189.47 180.63,187.92 181.02,186.35 181.42,184.76 181.81,183.15 182.2,181.54 182.6,179.91 182.99,178.27 183.38,176.63 183.78,174.98 184.17,173.33 184.56,171.68 184.96,170.03 185.35,168.38 185.74,166.75 186.14,165.12 186.53,163.5 186.92,161.88 187.32,160.28 187.71,158.69 188.1,157.11 188.5,155.54 188.89,153.98 189.28,152.43 189.68,150.88 190.07,149.34 190.46,147.8 190.86,146.27 191.25,144.74 191.64,143.21 192.04,141.67 192.43,140.14 192.82,138.61 193.22,137.08 193.61,135.55 194,134.03 194.4,132.51 194.79,131 195.18,129.49 195.58,128.01 195.97,126.53 196.36,125.08 196.76,123.65 197.15,122.24 197.54,120.85 197.94,119.5 198.33,118.19 198.72,116.91 199.12,115.66 199.51,114.45 199.9,113.27 200.3,112.13 200.69,111.04 201.09,109.98 201.48,108.95 201.87,107.96 202.27,107 202.66,106.07 203.05,105.17 203.45,104.3 203.84,103.45 204.23,102.62 204.63,101.82 205.02,101.03 205.41,100.26 205.81,99.5 206.2,98.76 206.59,98.02 206.99,97.29 207.38,96.57 207.77,95.86 208.17,95.16 208.56,94.46 208.95,93.76 209.35,93.07 209.74,92.38 210.13,91.7 210.53,91.02 210.92,90.34 211.31,89.67 211.71,89 212.1,88.34 212.49,87.68 212.89,87.03 213.28,86.38 213.67,85.74 214.07,85.1 214.46,84.47 214.85,83.84 215.25,83.22 215.64,82.6 216.03,81.99 216.43,81.39 216.82,80.79 217.21,80.2 217.61,79.62 218,79.04 218.39,78.47 218.79,77.91 219.18,77.36 219.57,76.82 219.97,76.28 220.36,75.76 220.75,75.25 221.15,74.75 221.54,74.27 221.93,73.8 222.33,73.35 222.72,72.91 223.11,72.5 223.51,72.11 223.9,71.73 224.29,71.38 224.69,71.05 225.08,70.74 225.48,70.47 225.87,70.21 226.26,69.98 226.66,69.77 227.05,69.58 227.44,69.41 227.84,69.26 228.23,69.13 228.62,69.02 229.02,68.91 229.41,68.82 229.8,68.74 230.2,68.66 230.59,68.58 230.98,68.51 231.38,68.43 231.77,68.35 232.16,68.26 232.56,68.17 232.95,68.06 233.34,67.95 233.74,67.83 234.13,67.69 234.52,67.55 234.92,67.39 235.31,67.23 235.7,67.05 236.1,66.86 236.49,66.66 236.88,66.46 237.28,66.25 237.67,66.02 238.06,65.8 238.46,65.56 238.85,65.32 239.24,65.06 239.64,64.81 240.03,64.54 240.42,64.27 240.82,63.99 241.21,63.7 241.6,63.41 242,63.1 242.39,62.79 242.78,62.47 243.18,62.14 243.57,61.8 243.96,61.46 244.36,61.11 244.75,60.76 245.14,60.4 245.54,60.04 245.93,59.68 246.32,59.32 246.72,58.96 247.11,58.61 247.5,58.26 247.9,57.92 248.29,57.59 248.68,57.28 249.08,56.97 249.47,56.68 249.86,56.4 250.26,56.15 250.65,55.91 251.05,55.68 251.44,55.48 251.83,55.29 252.23,55.11 252.62,54.96 253.01,54.82 253.41,54.7 253.8,54.59 254.19,54.49 254.59,54.4 254.98,54.33 255.37,54.27 255.77,54.21 256.16,54.17 256.55,54.13 256.95,54.09 257.34,54.07 257.73,54.04 258.13,54.03 258.52,54.01 258.91,54 259.31,53.99 259.7,53.98 260.09,53.97 260.49,53.97 260.88,53.97" stroke-dasharray="none" stroke="rgb(31,120,180)" stroke-width="0.75" opacity="1" stroke-opacity="1" fill="none"/>
          </g>
          <g id="Fig:densplot_01.xyplot.lines.group.2.panel.1.1.1">
            <polyline id="Fig:densplot_01.xyplot.lines.group.2.panel.1.1.1.1" points="59.36,54 59.75,54.01 60.15,54.02 60.54,54.05 60.94,54.07 61.33,54.1 61.73,54.14 62.12,54.19 62.52,54.25 62.91,54.32 63.31,54.41 63.71,54.52 64.1,54.64 64.5,54.79 64.89,54.96 65.29,55.16 65.68,55.4 66.08,55.67 66.47,55.98 66.87,56.33 67.26,56.72 67.66,57.17 68.06,57.67 68.45,58.23 68.85,58.84 69.24,59.51 69.64,60.24 70.03,61.03 70.43,61.89 70.82,62.81 71.22,63.79 71.61,64.81 72.01,65.9 72.41,67.03 72.8,68.22 73.2,69.45 73.59,70.71 73.99,72 74.38,73.32 74.78,74.66 75.17,76.01 75.57,77.37 75.96,78.74 76.36,80.1 76.75,81.45 77.15,82.8 77.55,84.12 77.94,85.42 78.34,86.7 78.73,87.95 79.13,89.18 79.52,90.37 79.92,91.53 80.31,92.65 80.71,93.73 81.1,94.79 81.5,95.8 81.9,96.79 82.29,97.73 82.69,98.64 83.08,99.52 83.48,100.36 83.87,101.18 84.27,101.96 84.66,102.72 85.06,103.44 85.45,104.14 85.85,104.82 86.25,105.48 86.64,106.11 87.04,106.73 87.43,107.33 87.83,107.92 88.22,108.49 88.62,109.06 89.01,109.61 89.41,110.15 89.8,110.68 90.2,111.21 90.6,111.72 90.99,112.23 91.39,112.73 91.78,113.23 92.18,113.72 92.57,114.19 92.97,114.66 93.36,115.12 93.76,115.57 94.15,116.01 94.55,116.44 94.95,116.86 95.34,117.27 95.74,117.66 96.13,118.04 96.53,118.41 96.92,118.77 97.32,119.11 97.71,119.44 98.11,119.76 98.5,120.07 98.9,120.37 99.3,120.66 99.69,120.94 100.09,121.22 100.48,121.49 100.88,121.77 101.27,122.04 101.67,122.31 102.06,122.59 102.46,122.88 102.85,123.18 103.25,123.49 103.65,123.82 104.04,124.16 104.44,124.52 104.83,124.91 105.23,125.32 105.62,125.75 106.02,126.21 106.41,126.7 106.81,127.22 107.2,127.76 107.6,128.34 108,128.95 108.39,129.58 108.79,130.25 109.18,130.94 109.58,131.66 109.97,132.41 110.37,133.18 110.76,133.97 111.16,134.79 111.55,135.62 111.95,136.47 112.35,137.33 112.74,138.2 113.14,139.09 113.53,139.98 113.93,140.87 114.32,141.76 114.72,142.65 115.11,143.53 115.51,144.41 115.9,145.27 116.3,146.13 116.7,146.97 117.09,147.79 117.49,148.59 117.88,149.38 118.28,150.15 118.67,150.91 119.07,151.64 119.46,152.36 119.86,153.06 120.25,153.76 120.65,154.44 121.05,155.11 121.44,155.78 121.84,156.45 122.23,157.11 122.63,157.78 123.02,158.45 123.42,159.13 123.81,159.82 124.21,160.52 124.6,161.24 125,161.96 125.4,162.7 125.79,163.46 126.19,164.22 126.58,165.01 126.98,165.8 127.37,166.61 127.77,167.43 128.16,168.26 128.56,169.1 128.95,169.95 129.35,170.8 129.75,171.67 130.14,172.53 130.54,173.4 130.93,174.28 131.33,175.15 131.72,176.03 132.12,176.91 132.51,177.79 132.91,178.67 133.3,179.55 133.7,180.43 134.1,181.31 134.49,182.18 134.89,183.05 135.28,183.92 135.68,184.78 136.07,185.64 136.47,186.48 136.86,187.32 137.26,188.14 137.65,188.96 138.05,189.75 138.44,190.53 138.84,191.29 139.24,192.03 139.63,192.75 140.03,193.44 140.42,194.12 140.82,194.77 141.21,195.39 141.61,195.99 142,196.58 142.4,197.14 142.79,197.68 143.19,198.21 143.59,198.72 143.98,199.22 144.38,199.72 144.77,200.21 145.17,200.69 145.56,201.17 145.96,201.65 146.35,202.14 146.75,202.63 147.14,203.12 147.54,203.62 147.94,204.13 148.33,204.64 148.73,205.16 149.12,205.68 149.52,206.21 149.91,206.74 150.31,207.26 150.7,207.79 151.1,208.31 151.49,208.83 151.89,209.33 152.29,209.83 152.68,210.32 153.08,210.79 153.47,211.23 153.87,211.66 154.26,212.07 154.66,212.46 155.05,212.82 155.45,213.16 155.84,213.47 156.24,213.74 156.64,214 157.03,214.22 157.43,214.42 157.82,214.59 158.22,214.73 158.61,214.84 159.01,214.93 159.4,214.99 159.8,215.03 160.19,215.05 160.59,215.05 160.99,215.02 161.38,214.97 161.78,214.9 162.17,214.82 162.57,214.71 162.96,214.59 163.36,214.44 163.75,214.27 164.15,214.09 164.54,213.88 164.94,213.66 165.34,213.41 165.73,213.14 166.13,212.85 166.52,212.53 166.92,212.19 167.31,211.82 167.71,211.43 168.1,211 168.5,210.55 168.89,210.07 169.29,209.56 169.69,209.01 170.08,208.44 170.48,207.82 170.87,207.17 171.27,206.49 171.66,205.77 172.06,205.02 172.45,204.23 172.85,203.4 173.24,202.54 173.64,201.64 174.04,200.71 174.43,199.75 174.83,198.76 175.22,197.73 175.62,196.68 176.01,195.6 176.41,194.5 176.8,193.38 177.2,192.24 177.59,191.07 177.99,189.89 178.39,188.68 178.78,187.46 179.18,186.22 179.57,184.96 179.97,183.69 180.36,182.4 180.76,181.08 181.15,179.76 181.55,178.41 181.94,177.05 182.34,175.67 182.74,174.28 183.13,172.87 183.53,171.44 183.92,170.01 184.32,168.56 184.71,167.1 185.11,165.63 185.5,164.15 185.9,162.67 186.29,161.18 186.69,159.7 187.09,158.2 187.48,156.71 187.88,155.22 188.27,153.74 188.67,152.25 189.06,150.78 189.46,149.3 189.85,147.84 190.25,146.39 190.64,144.94 191.04,143.51 191.44,142.09 191.83,140.69 192.23,139.3 192.62,137.93 193.02,136.57 193.41,135.24 193.81,133.92 194.2,132.62 194.6,131.34 194.99,130.08 195.39,128.85 195.79,127.63 196.18,126.44 196.58,125.26 196.97,124.1 197.37,122.96 197.76,121.84 198.16,120.74 198.55,119.65 198.95,118.57 199.34,117.51 199.74,116.46 200.14,115.43 200.53,114.4 200.93,113.39 201.32,112.38 201.72,111.38 202.11,110.4 202.51,109.42 202.9,108.46 203.3,107.5 203.69,106.56 204.09,105.63 204.48,104.71 204.88,103.8 205.28,102.91 205.67,102.04 206.07,101.18 206.46,100.34 206.86,99.51 207.25,98.71 207.65,97.92 208.04,97.16 208.44,96.41 208.83,95.68 209.23,94.97 209.63,94.29 210.02,93.62 210.42,92.97 210.81,92.33 211.21,91.71 211.6,91.11 212,90.52 212.39,89.94 212.79,89.37 213.18,88.81 213.58,88.26 213.98,87.72 214.37,87.18 214.77,86.64 215.16,86.11 215.56,85.57 215.95,85.04 216.35,84.51 216.74,83.99 217.14,83.46 217.53,82.93 217.93,82.4 218.33,81.88 218.72,81.35 219.12,80.83 219.51,80.31 219.91,79.8 220.3,79.29 220.7,78.78 221.09,78.28 221.49,77.78 221.88,77.29 222.28,76.81 222.68,76.34 223.07,75.88 223.47,75.42 223.86,74.97 224.26,74.53 224.65,74.1 225.05,73.69 225.44,73.28 225.84,72.88 226.23,72.48 226.63,72.1 227.03,71.74 227.42,71.38 227.82,71.03 228.21,70.69 228.61,70.36 229,70.04 229.4,69.74 229.79,69.44 230.19,69.16 230.58,68.89 230.98,68.63 231.38,68.38 231.77,68.15 232.17,67.93 232.56,67.72 232.96,67.52 233.35,67.34 233.75,67.16 234.14,67.01 234.54,66.86 234.93,66.72 235.33,66.59 235.73,66.48 236.12,66.37 236.52,66.26 236.91,66.17 237.31,66.07 237.7,65.98 238.1,65.89 238.49,65.79 238.89,65.69 239.28,65.58 239.68,65.46 240.08,65.32 240.47,65.18 240.87,65.02 241.26,64.84 241.66,64.64 242.05,64.42 242.45,64.18 242.84,63.91 243.24,63.63 243.63,63.33 244.03,63.01 244.43,62.67 244.82,62.31 245.22,61.94 245.61,61.55 246.01,61.16 246.4,60.75 246.8,60.35 247.19,59.94 247.59,59.54 247.98,59.13 248.38,58.74 248.78,58.35 249.17,57.98 249.57,57.62 249.96,57.28 250.36,56.95 250.75,56.64 251.15,56.35 251.54,56.08 251.94,55.84 252.33,55.61 252.73,55.4 253.13,55.21 253.52,55.04 253.92,54.89 254.31,54.75 254.71,54.63 255.1,54.53 255.5,54.44 255.89,54.36 256.29,54.29 256.68,54.23 257.08,54.18 257.48,54.14 257.87,54.11 258.27,54.08 258.66,54.05 259.06,54.03 259.45,54.02 259.85,54 260.24,53.99 260.64,53.98 261.03,53.98 261.43,53.97" stroke-dasharray="none" stroke="rgb(31,120,180)" stroke-width="0.75" opacity="1" stroke-opacity="1" fill="none"/>
          </g>
          <g id="Fig:densplot_01.xyplot.lines.group.3.panel.1.1.1">
            <polyline id="Fig:densplot_01.xyplot.lines.group.3.panel.1.1.1.1" points="59.1,54 59.49,54.02 59.89,54.04 60.29,54.06 60.68,54.09 61.08,54.12 61.48,54.17 61.87,54.22 62.27,54.29 62.67,54.37 63.06,54.46 63.46,54.58 63.86,54.71 64.25,54.88 64.65,55.07 65.05,55.29 65.44,55.54 65.84,55.83 66.24,56.17 66.63,56.56 67.03,56.99 67.43,57.48 67.82,58.02 68.22,58.63 68.61,59.3 69.01,60.04 69.41,60.85 69.8,61.72 70.2,62.66 70.6,63.67 70.99,64.75 71.39,65.9 71.79,67.12 72.18,68.39 72.58,69.72 72.98,71.09 73.37,72.51 73.77,73.98 74.17,75.47 74.56,76.99 74.96,78.52 75.36,80.06 75.75,81.61 76.15,83.14 76.55,84.66 76.94,86.16 77.34,87.64 77.74,89.08 78.13,90.48 78.53,91.83 78.92,93.13 79.32,94.39 79.72,95.59 80.11,96.73 80.51,97.83 80.91,98.85 81.3,99.83 81.7,100.75 82.1,101.62 82.49,102.44 82.89,103.21 83.29,103.94 83.68,104.63 84.08,105.28 84.48,105.9 84.87,106.49 85.27,107.06 85.67,107.6 86.06,108.13 86.46,108.64 86.86,109.14 87.25,109.62 87.65,110.1 88.05,110.58 88.44,111.04 88.84,111.5 89.23,111.95 89.63,112.4 90.03,112.85 90.42,113.29 90.82,113.72 91.22,114.14 91.61,114.56 92.01,114.97 92.41,115.37 92.8,115.76 93.2,116.13 93.6,116.5 93.99,116.85 94.39,117.19 94.79,117.52 95.18,117.83 95.58,118.14 95.98,118.43 96.37,118.71 96.77,118.98 97.17,119.25 97.56,119.5 97.96,119.76 98.35,120.01 98.75,120.25 99.15,120.51 99.54,120.76 99.94,121.02 100.34,121.29 100.73,121.58 101.13,121.88 101.53,122.2 101.92,122.55 102.32,122.92 102.72,123.32 103.11,123.76 103.51,124.23 103.91,124.74 104.3,125.29 104.7,125.88 105.1,126.52 105.49,127.2 105.89,127.92 106.29,128.69 106.68,129.49 107.08,130.33 107.48,131.21 107.87,132.13 108.27,133.06 108.66,134.02 109.06,134.99 109.46,135.97 109.85,136.96 110.25,137.95 110.65,138.92 111.04,139.89 111.44,140.83 111.84,141.75 112.23,142.64 112.63,143.5 113.03,144.33 113.42,145.12 113.82,145.87 114.22,146.59 114.61,147.26 115.01,147.9 115.41,148.5 115.8,149.08 116.2,149.62 116.6,150.14 116.99,150.64 117.39,151.11 117.79,151.58 118.18,152.03 118.58,152.48 118.97,152.93 119.37,153.38 119.77,153.83 120.16,154.3 120.56,154.77 120.96,155.26 121.35,155.77 121.75,156.3 122.15,156.85 122.54,157.42 122.94,158.01 123.34,158.63 123.73,159.26 124.13,159.93 124.53,160.62 124.92,161.34 125.32,162.08 125.72,162.84 126.11,163.63 126.51,164.43 126.91,165.26 127.3,166.11 127.7,166.98 128.09,167.85 128.49,168.75 128.89,169.65 129.28,170.57 129.68,171.49 130.08,172.42 130.47,173.35 130.87,174.28 131.27,175.2 131.66,176.13 132.06,177.04 132.46,177.95 132.85,178.85 133.25,179.73 133.65,180.6 134.04,181.46 134.44,182.3 134.84,183.12 135.23,183.93 135.63,184.71 136.03,185.48 136.42,186.23 136.82,186.96 137.22,187.67 137.61,188.36 138.01,189.03 138.4,189.68 138.8,190.32 139.2,190.93 139.59,191.52 139.99,192.1 140.39,192.67 140.78,193.21 141.18,193.74 141.58,194.26 141.97,194.76 142.37,195.24 142.77,195.72 143.16,196.18 143.56,196.63 143.96,197.07 144.35,197.49 144.75,197.91 145.15,198.31 145.54,198.7 145.94,199.09 146.34,199.46 146.73,199.83 147.13,200.18 147.53,200.53 147.92,200.88 148.32,201.21 148.71,201.55 149.11,201.87 149.51,202.2 149.9,202.52 150.3,202.85 150.7,203.17 151.09,203.5 151.49,203.84 151.89,204.18 152.28,204.53 152.68,204.88 153.08,205.25 153.47,205.63 153.87,206.02 154.27,206.42 154.66,206.82 155.06,207.24 155.46,207.67 155.85,208.1 156.25,208.54 156.65,208.97 157.04,209.41 157.44,209.84 157.83,210.27 158.23,210.68 158.63,211.07 159.02,211.45 159.42,211.79 159.82,212.12 160.21,212.4 160.61,212.65 161.01,212.86 161.4,213.02 161.8,213.14 162.2,213.2 162.59,213.22 162.99,213.18 163.39,213.09 163.78,212.93 164.18,212.73 164.58,212.48 164.97,212.17 165.37,211.81 165.77,211.4 166.16,210.94 166.56,210.44 166.96,209.9 167.35,209.32 167.75,208.71 168.14,208.06 168.54,207.38 168.94,206.68 169.33,205.95 169.73,205.2 170.13,204.44 170.52,203.64 170.92,202.84 171.32,202.01 171.71,201.17 172.11,200.31 172.51,199.44 172.9,198.55 173.3,197.64 173.7,196.72 174.09,195.77 174.49,194.81 174.89,193.83 175.28,192.82 175.68,191.79 176.08,190.74 176.47,189.67 176.87,188.57 177.27,187.45 177.66,186.3 178.06,185.13 178.45,183.93 178.85,182.72 179.25,181.48 179.64,180.23 180.04,178.95 180.44,177.65 180.83,176.35 181.23,175.02 181.63,173.69 182.02,172.35 182.42,171 182.82,169.65 183.21,168.29 183.61,166.93 184.01,165.56 184.4,164.2 184.8,162.83 185.2,161.46 185.59,160.09 185.99,158.72 186.39,157.35 186.78,155.98 187.18,154.6 187.57,153.22 187.97,151.85 188.37,150.47 188.76,149.09 189.16,147.7 189.56,146.32 189.95,144.94 190.35,143.56 190.75,142.19 191.14,140.82 191.54,139.46 191.94,138.11 192.33,136.77 192.73,135.45 193.13,134.14 193.52,132.85 193.92,131.57 194.32,130.32 194.71,129.08 195.11,127.87 195.51,126.69 195.9,125.52 196.3,124.38 196.7,123.26 197.09,122.17 197.49,121.11 197.88,120.07 198.28,119.06 198.68,118.07 199.07,117.1 199.47,116.16 199.87,115.25 200.26,114.36 200.66,113.5 201.06,112.65 201.45,111.83 201.85,111.03 202.25,110.25 202.64,109.48 203.04,108.73 203.44,108 203.83,107.27 204.23,106.55 204.63,105.85 205.02,105.14 205.42,104.44 205.82,103.74 206.21,103.04 206.61,102.33 207,101.62 207.4,100.9 207.8,100.18 208.19,99.45 208.59,98.71 208.99,97.97 209.38,97.22 209.78,96.46 210.18,95.7 210.57,94.95 210.97,94.19 211.37,93.44 211.76,92.69 212.16,91.96 212.56,91.23 212.95,90.52 213.35,89.83 213.75,89.16 214.14,88.51 214.54,87.88 214.94,87.28 215.33,86.71 215.73,86.15 216.13,85.63 216.52,85.14 216.92,84.67 217.31,84.22 217.71,83.79 218.11,83.39 218.5,83 218.9,82.63 219.3,82.27 219.69,81.92 220.09,81.58 220.49,81.25 220.88,80.91 221.28,80.57 221.68,80.23 222.07,79.89 222.47,79.54 222.87,79.17 223.26,78.8 223.66,78.42 224.06,78.03 224.45,77.63 224.85,77.21 225.25,76.79 225.64,76.36 226.04,75.92 226.44,75.47 226.83,75.02 227.23,74.57 227.62,74.11 228.02,73.66 228.42,73.22 228.81,72.78 229.21,72.34 229.61,71.92 230,71.5 230.4,71.1 230.8,70.71 231.19,70.34 231.59,69.98 231.99,69.64 232.38,69.31 232.78,69 233.18,68.71 233.57,68.43 233.97,68.17 234.37,67.92 234.76,67.68 235.16,67.46 235.56,67.25 235.95,67.05 236.35,66.86 236.74,66.68 237.14,66.51 237.54,66.34 237.93,66.17 238.33,66.01 238.73,65.84 239.12,65.68 239.52,65.51 239.92,65.34 240.31,65.16 240.71,64.97 241.11,64.77 241.5,64.55 241.9,64.33 242.3,64.09 242.69,63.84 243.09,63.57 243.49,63.29 243.88,62.99 244.28,62.68 244.68,62.35 245.07,62.01 245.47,61.66 245.87,61.3 246.26,60.93 246.66,60.55 247.05,60.17 247.45,59.79 247.85,59.41 248.24,59.03 248.64,58.66 249.04,58.29 249.43,57.94 249.83,57.59 250.23,57.26 250.62,56.95 251.02,56.65 251.42,56.37 251.81,56.11 252.21,55.87 252.61,55.64 253,55.44 253.4,55.25 253.8,55.08 254.19,54.93 254.59,54.79 254.99,54.67 255.38,54.56 255.78,54.47 256.18,54.39 256.57,54.31 256.97,54.25 257.36,54.2 257.76,54.16 258.16,54.12 258.55,54.09 258.95,54.06 259.35,54.04 259.74,54.02 260.14,54.01 260.54,54 260.93,53.99 261.33,53.98 261.73,53.97" stroke-dasharray="none" stroke="rgb(31,120,180)" stroke-width="0.75" opacity="1" stroke-opacity="1" fill="none"/>
          </g>
          <g id="Fig:densplot_01.xyplot.lines.group.4.panel.1.1.1">
            <polyline id="Fig:densplot_01.xyplot.lines.group.4.panel.1.1.1.1" points="59.31,53.99 59.7,54 60.1,54.01 60.5,54.03 60.89,54.05 61.29,54.08 61.68,54.12 62.08,54.16 62.47,54.21 62.87,54.27 63.27,54.35 63.66,54.44 64.06,54.55 64.45,54.68 64.85,54.83 65.24,55.01 65.64,55.22 66.03,55.47 66.43,55.75 66.83,56.07 67.22,56.43 67.62,56.84 68.01,57.3 68.41,57.83 68.8,58.4 69.2,59.04 69.6,59.73 69.99,60.49 70.39,61.32 70.78,62.22 71.18,63.18 71.57,64.2 71.97,65.29 72.37,66.43 72.76,67.64 73.16,68.91 73.55,70.22 73.95,71.57 74.34,72.96 74.74,74.38 75.14,75.84 75.53,77.3 75.93,78.78 76.32,80.27 76.72,81.75 77.11,83.22 77.51,84.68 77.9,86.11 78.3,87.51 78.7,88.88 79.09,90.21 79.49,91.51 79.88,92.76 80.28,93.95 80.67,95.1 81.07,96.2 81.47,97.25 81.86,98.26 82.26,99.21 82.65,100.11 83.05,100.97 83.44,101.79 83.84,102.56 84.24,103.3 84.63,104 85.03,104.66 85.42,105.3 85.82,105.9 86.21,106.49 86.61,107.05 87,107.59 87.4,108.11 87.8,108.61 88.19,109.1 88.59,109.58 88.98,110.04 89.38,110.49 89.77,110.94 90.17,111.37 90.57,111.8 90.96,112.22 91.36,112.63 91.75,113.03 92.15,113.43 92.54,113.82 92.94,114.21 93.34,114.59 93.73,114.96 94.13,115.33 94.52,115.69 94.92,116.04 95.31,116.39 95.71,116.73 96.11,117.06 96.5,117.39 96.9,117.72 97.29,118.03 97.69,118.35 98.08,118.66 98.48,118.97 98.87,119.27 99.27,119.58 99.67,119.88 100.06,120.19 100.46,120.5 100.85,120.82 101.25,121.14 101.64,121.47 102.04,121.81 102.44,122.16 102.83,122.53 103.23,122.91 103.62,123.31 104.02,123.73 104.41,124.17 104.81,124.62 105.21,125.11 105.6,125.61 106,126.13 106.39,126.68 106.79,127.25 107.18,127.85 107.58,128.47 107.98,129.12 108.37,129.78 108.77,130.47 109.16,131.18 109.56,131.92 109.95,132.67 110.35,133.45 110.74,134.24 111.14,135.04 111.54,135.87 111.93,136.71 112.33,137.56 112.72,138.42 113.12,139.3 113.51,140.18 113.91,141.06 114.31,141.95 114.7,142.84 115.1,143.73 115.49,144.61 115.89,145.49 116.28,146.37 116.68,147.23 117.08,148.08 117.47,148.91 117.87,149.73 118.26,150.53 118.66,151.32 119.05,152.09 119.45,152.84 119.84,153.58 120.24,154.3 120.64,155 121.03,155.69 121.43,156.37 121.82,157.05 122.22,157.71 122.61,158.38 123.01,159.04 123.41,159.7 123.8,160.37 124.2,161.04 124.59,161.73 124.99,162.42 125.38,163.13 125.78,163.85 126.18,164.58 126.57,165.34 126.97,166.11 127.36,166.89 127.76,167.69 128.15,168.51 128.55,169.35 128.95,170.2 129.34,171.06 129.74,171.94 130.13,172.82 130.53,173.71 130.92,174.61 131.32,175.52 131.71,176.43 132.11,177.33 132.51,178.24 132.9,179.13 133.3,180.02 133.69,180.91 134.09,181.77 134.48,182.62 134.88,183.46 135.28,184.27 135.67,185.06 136.07,185.83 136.46,186.57 136.86,187.29 137.25,187.98 137.65,188.64 138.05,189.27 138.44,189.88 138.84,190.45 139.23,191.01 139.63,191.54 140.02,192.04 140.42,192.53 140.82,193.01 141.21,193.47 141.61,193.91 142,194.36 142.4,194.8 142.79,195.23 143.19,195.67 143.58,196.12 143.98,196.57 144.38,197.03 144.77,197.49 145.17,197.97 145.56,198.46 145.96,198.96 146.35,199.48 146.75,200 147.15,200.53 147.54,201.07 147.94,201.62 148.33,202.17 148.73,202.73 149.12,203.29 149.52,203.84 149.92,204.4 150.31,204.96 150.71,205.52 151.1,206.07 151.5,206.61 151.89,207.15 152.29,207.69 152.68,208.21 153.08,208.73 153.48,209.23 153.87,209.73 154.27,210.21 154.66,210.68 155.06,211.14 155.45,211.58 155.85,212.01 156.25,212.41 156.64,212.8 157.04,213.17 157.43,213.52 157.83,213.85 158.22,214.15 158.62,214.43 159.02,214.69 159.41,214.93 159.81,215.14 160.2,215.33 160.6,215.49 160.99,215.63 161.39,215.74 161.79,215.82 162.18,215.88 162.58,215.9 162.97,215.9 163.37,215.85 163.76,215.77 164.16,215.66 164.55,215.5 164.95,215.31 165.35,215.07 165.74,214.77 166.14,214.43 166.53,214.04 166.93,213.6 167.32,213.11 167.72,212.56 168.12,211.95 168.51,211.29 168.91,210.58 169.3,209.82 169.7,209.02 170.09,208.17 170.49,207.27 170.89,206.33 171.28,205.36 171.68,204.36 172.07,203.33 172.47,202.27 172.86,201.2 173.26,200.11 173.66,199.01 174.05,197.9 174.45,196.79 174.84,195.68 175.24,194.56 175.63,193.45 176.03,192.33 176.42,191.23 176.82,190.12 177.22,189.02 177.61,187.93 178.01,186.84 178.4,185.75 178.8,184.66 179.19,183.57 179.59,182.48 179.99,181.38 180.38,180.28 180.78,179.17 181.17,178.06 181.57,176.93 181.96,175.79 182.36,174.64 182.76,173.47 183.15,172.28 183.55,171.08 183.94,169.86 184.34,168.63 184.73,167.37 185.13,166.1 185.52,164.81 185.92,163.5 186.32,162.18 186.71,160.85 187.11,159.5 187.5,158.14 187.9,156.78 188.29,155.4 188.69,154.02 189.09,152.64 189.48,151.25 189.88,149.86 190.27,148.47 190.67,147.09 191.06,145.71 191.46,144.33 191.86,142.96 192.25,141.59 192.65,140.23 193.04,138.87 193.44,137.52 193.83,136.17 194.23,134.83 194.63,133.49 195.02,132.16 195.42,130.83 195.81,129.5 196.21,128.17 196.6,126.85 197,125.54 197.39,124.23 197.79,122.92 198.19,121.63 198.58,120.34 198.98,119.06 199.37,117.8 199.77,116.56 200.16,115.33 200.56,114.12 200.96,112.94 201.35,111.78 201.75,110.64 202.14,109.54 202.54,108.46 202.93,107.42 203.33,106.42 203.73,105.44 204.12,104.5 204.52,103.59 204.91,102.73 205.31,101.89 205.7,101.09 206.1,100.32 206.5,99.58 206.89,98.87 207.29,98.19 207.68,97.53 208.08,96.9 208.47,96.28 208.87,95.69 209.26,95.11 209.66,94.55 210.06,94.01 210.45,93.47 210.85,92.94 211.24,92.42 211.64,91.91 212.03,91.4 212.43,90.89 212.83,90.39 213.22,89.89 213.62,89.39 214.01,88.89 214.41,88.39 214.8,87.89 215.2,87.39 215.6,86.89 215.99,86.39 216.39,85.88 216.78,85.38 217.18,84.87 217.57,84.36 217.97,83.86 218.36,83.35 218.76,82.85 219.16,82.34 219.55,81.84 219.95,81.33 220.34,80.83 220.74,80.34 221.13,79.84 221.53,79.35 221.93,78.86 222.32,78.38 222.72,77.89 223.11,77.41 223.51,76.94 223.9,76.47 224.3,76 224.7,75.54 225.09,75.08 225.49,74.63 225.88,74.18 226.28,73.73 226.67,73.29 227.07,72.86 227.47,72.44 227.86,72.02 228.26,71.62 228.65,71.22 229.05,70.83 229.44,70.46 229.84,70.1 230.23,69.75 230.63,69.42 231.03,69.1 231.42,68.8 231.82,68.52 232.21,68.26 232.61,68.01 233,67.78 233.4,67.57 233.8,67.38 234.19,67.21 234.59,67.05 234.98,66.9 235.38,66.77 235.77,66.65 236.17,66.54 236.57,66.43 236.96,66.34 237.36,66.24 237.75,66.14 238.15,66.05 238.54,65.94 238.94,65.83 239.34,65.71 239.73,65.58 240.13,65.43 240.52,65.26 240.92,65.08 241.31,64.88 241.71,64.66 242.1,64.41 242.5,64.15 242.9,63.87 243.29,63.56 243.69,63.23 244.08,62.89 244.48,62.53 244.87,62.15 245.27,61.77 245.67,61.37 246.06,60.97 246.46,60.56 246.85,60.15 247.25,59.74 247.64,59.33 248.04,58.93 248.44,58.54 248.83,58.16 249.23,57.79 249.62,57.44 250.02,57.11 250.41,56.79 250.81,56.49 251.2,56.22 251.6,55.96 252,55.72 252.39,55.5 252.79,55.31 253.18,55.12 253.58,54.97 253.97,54.82 254.37,54.7 254.77,54.58 255.16,54.49 255.56,54.4 255.95,54.33 256.35,54.26 256.74,54.21 257.14,54.16 257.54,54.12 257.93,54.09 258.33,54.07 258.72,54.04 259.12,54.03 259.51,54.01 259.91,54 260.31,53.99 260.7,53.98 261.1,53.97 261.49,53.97" stroke-dasharray="none" stroke="rgb(31,120,180)" stroke-width="0.75" opacity="1" stroke-opacity="1" fill="none"/>
          </g>
          <g id="Fig:densplot_01.xyplot.lines.group.5.panel.1.1.1">
            <polyline id="Fig:densplot_01.xyplot.lines.group.5.panel.1.1.1.1" points="59.3,54 59.7,54.01 60.09,54.02 60.49,54.04 60.88,54.07 61.28,54.1 61.68,54.14 62.07,54.19 62.47,54.25 62.86,54.32 63.26,54.41 63.65,54.52 64.05,54.65 64.45,54.8 64.84,54.98 65.24,55.18 65.63,55.43 66.03,55.71 66.42,56.03 66.82,56.4 67.22,56.81 67.61,57.28 68.01,57.81 68.4,58.4 68.8,59.05 69.19,59.76 69.59,60.54 69.99,61.38 70.38,62.3 70.78,63.29 71.17,64.34 71.57,65.45 71.96,66.63 72.36,67.85 72.76,69.14 73.15,70.47 73.55,71.84 73.94,73.25 74.34,74.68 74.74,76.13 75.13,77.59 75.53,79.05 75.92,80.51 76.32,81.96 76.71,83.39 77.11,84.8 77.51,86.18 77.9,87.52 78.3,88.82 78.69,90.07 79.09,91.28 79.48,92.45 79.88,93.56 80.28,94.62 80.67,95.63 81.07,96.6 81.46,97.51 81.86,98.39 82.25,99.22 82.65,100.01 83.05,100.76 83.44,101.48 83.84,102.18 84.23,102.85 84.63,103.5 85.02,104.13 85.42,104.74 85.82,105.35 86.21,105.94 86.61,106.53 87,107.11 87.4,107.69 87.79,108.27 88.19,108.85 88.59,109.43 88.98,110 89.38,110.57 89.77,111.14 90.17,111.7 90.57,112.25 90.96,112.8 91.36,113.33 91.75,113.85 92.15,114.35 92.54,114.83 92.94,115.29 93.34,115.73 93.73,116.14 94.13,116.53 94.52,116.89 94.92,117.22 95.31,117.52 95.71,117.8 96.11,118.05 96.5,118.28 96.9,118.49 97.29,118.68 97.69,118.85 98.08,119.01 98.48,119.16 98.88,119.3 99.27,119.45 99.67,119.59 100.06,119.74 100.46,119.91 100.85,120.08 101.25,120.27 101.65,120.48 102.04,120.72 102.44,120.98 102.83,121.27 103.23,121.58 103.63,121.93 104.02,122.31 104.42,122.72 104.81,123.18 105.21,123.66 105.6,124.18 106,124.74 106.4,125.33 106.79,125.96 107.19,126.63 107.58,127.33 107.98,128.07 108.37,128.84 108.77,129.64 109.17,130.48 109.56,131.36 109.96,132.26 110.35,133.19 110.75,134.14 111.14,135.12 111.54,136.11 111.94,137.13 112.33,138.15 112.73,139.18 113.12,140.22 113.52,141.25 113.91,142.27 114.31,143.28 114.71,144.28 115.1,145.25 115.5,146.2 115.89,147.11 116.29,148 116.68,148.84 117.08,149.65 117.48,150.41 117.87,151.13 118.27,151.82 118.66,152.46 119.06,153.06 119.46,153.63 119.85,154.16 120.25,154.67 120.64,155.15 121.04,155.62 121.43,156.08 121.83,156.52 122.23,156.97 122.62,157.42 123.02,157.89 123.41,158.36 123.81,158.86 124.2,159.39 124.6,159.94 125,160.52 125.39,161.14 125.79,161.78 126.18,162.46 126.58,163.18 126.97,163.93 127.37,164.72 127.77,165.53 128.16,166.37 128.56,167.23 128.95,168.12 129.35,169.03 129.74,169.96 130.14,170.9 130.54,171.86 130.93,172.83 131.33,173.8 131.72,174.79 132.12,175.78 132.51,176.77 132.91,177.77 133.31,178.76 133.7,179.76 134.1,180.75 134.49,181.74 134.89,182.72 135.29,183.69 135.68,184.65 136.08,185.6 136.47,186.53 136.87,187.45 137.26,188.35 137.66,189.22 138.06,190.07 138.45,190.9 138.85,191.7 139.24,192.47 139.64,193.21 140.03,193.93 140.43,194.62 140.83,195.29 141.22,195.92 141.62,196.53 142.01,197.12 142.41,197.69 142.8,198.24 143.2,198.78 143.6,199.3 143.99,199.8 144.39,200.29 144.78,200.77 145.18,201.24 145.57,201.69 145.97,202.14 146.37,202.57 146.76,202.99 147.16,203.4 147.55,203.8 147.95,204.19 148.35,204.56 148.74,204.92 149.14,205.27 149.53,205.61 149.93,205.94 150.32,206.27 150.72,206.58 151.12,206.9 151.51,207.21 151.91,207.52 152.3,207.84 152.7,208.16 153.09,208.49 153.49,208.83 153.89,209.17 154.28,209.53 154.68,209.9 155.07,210.27 155.47,210.66 155.86,211.05 156.26,211.45 156.66,211.85 157.05,212.25 157.45,212.65 157.84,213.05 158.24,213.43 158.63,213.79 159.03,214.14 159.43,214.47 159.82,214.77 160.22,215.04 160.61,215.28 161.01,215.48 161.4,215.65 161.8,215.78 162.2,215.87 162.59,215.91 162.99,215.92 163.38,215.87 163.78,215.77 164.18,215.63 164.57,215.44 164.97,215.21 165.36,214.93 165.76,214.6 166.15,214.22 166.55,213.79 166.95,213.31 167.34,212.8 167.74,212.23 168.13,211.62 168.53,210.96 168.92,210.26 169.32,209.52 169.72,208.75 170.11,207.93 170.51,207.08 170.9,206.2 171.3,205.28 171.69,204.34 172.09,203.37 172.49,202.39 172.88,201.38 173.28,200.35 173.67,199.3 174.07,198.24 174.46,197.17 174.86,196.09 175.26,194.99 175.65,193.89 176.05,192.78 176.44,191.65 176.84,190.52 177.24,189.38 177.63,188.23 178.03,187.06 178.42,185.88 178.82,184.69 179.21,183.49 179.61,182.27 180.01,181.03 180.4,179.78 180.8,178.51 181.19,177.22 181.59,175.92 181.98,174.6 182.38,173.27 182.78,171.93 183.17,170.57 183.57,169.21 183.96,167.84 184.36,166.47 184.75,165.09 185.15,163.71 185.55,162.34 185.94,160.96 186.34,159.6 186.73,158.24 187.13,156.88 187.52,155.54 187.92,154.21 188.32,152.89 188.71,151.58 189.11,150.28 189.5,148.98 189.9,147.7 190.29,146.42 190.69,145.14 191.09,143.88 191.48,142.61 191.88,141.35 192.27,140.08 192.67,138.82 193.07,137.56 193.46,136.3 193.86,135.03 194.25,133.77 194.65,132.5 195.04,131.24 195.44,129.98 195.84,128.72 196.23,127.47 196.63,126.23 197.02,124.99 197.42,123.77 197.81,122.55 198.21,121.36 198.61,120.17 199,119.01 199.4,117.86 199.79,116.73 200.19,115.62 200.58,114.53 200.98,113.47 201.38,112.42 201.77,111.4 202.17,110.4 202.56,109.42 202.96,108.46 203.35,107.53 203.75,106.62 204.15,105.73 204.54,104.86 204.94,104.02 205.33,103.2 205.73,102.4 206.13,101.62 206.52,100.86 206.92,100.12 207.31,99.4 207.71,98.7 208.1,98.02 208.5,97.35 208.9,96.7 209.29,96.07 209.69,95.45 210.08,94.85 210.48,94.26 210.87,93.69 211.27,93.12 211.67,92.57 212.06,92.02 212.46,91.48 212.85,90.94 213.25,90.41 213.64,89.89 214.04,89.36 214.44,88.84 214.83,88.31 215.23,87.78 215.62,87.25 216.02,86.71 216.41,86.17 216.81,85.62 217.21,85.06 217.6,84.5 218,83.93 218.39,83.36 218.79,82.77 219.18,82.19 219.58,81.59 219.98,81 220.37,80.4 220.77,79.8 221.16,79.21 221.56,78.61 221.96,78.03 222.35,77.45 222.75,76.88 223.14,76.32 223.54,75.77 223.93,75.23 224.33,74.71 224.73,74.21 225.12,73.73 225.52,73.26 225.91,72.81 226.31,72.38 226.7,71.96 227.1,71.57 227.5,71.2 227.89,70.84 228.29,70.5 228.68,70.17 229.08,69.86 229.47,69.57 229.87,69.29 230.27,69.02 230.66,68.77 231.06,68.53 231.45,68.3 231.85,68.08 232.24,67.87 232.64,67.68 233.04,67.49 233.43,67.31 233.83,67.14 234.22,66.97 234.62,66.82 235.02,66.67 235.41,66.53 235.81,66.39 236.2,66.26 236.6,66.14 236.99,66.02 237.39,65.9 237.79,65.78 238.18,65.66 238.58,65.53 238.97,65.41 239.37,65.28 239.76,65.14 240.16,64.99 240.56,64.83 240.95,64.66 241.35,64.48 241.74,64.28 242.14,64.06 242.53,63.83 242.93,63.58 243.33,63.32 243.72,63.03 244.12,62.73 244.51,62.41 244.91,62.08 245.3,61.73 245.7,61.37 246.1,61 246.49,60.63 246.89,60.25 247.28,59.86 247.68,59.48 248.07,59.1 248.47,58.72 248.87,58.35 249.26,57.99 249.66,57.65 250.05,57.31 250.45,56.99 250.85,56.69 251.24,56.4 251.64,56.14 252.03,55.89 252.43,55.66 252.82,55.45 253.22,55.26 253.62,55.09 254.01,54.94 254.41,54.8 254.8,54.67 255.2,54.56 255.59,54.47 255.99,54.39 256.39,54.31 256.78,54.25 257.18,54.2 257.57,54.16 257.97,54.12 258.36,54.09 258.76,54.06 259.16,54.04 259.55,54.02 259.95,54.01 260.34,54 260.74,53.99 261.13,53.98 261.53,53.97" stroke-dasharray="none" stroke="rgb(31,120,180)" stroke-width="0.75" opacity="1" stroke-opacity="1" fill="none"/>
          </g>
          <g id="Fig:densplot_01.xyplot.lines.group.6.panel.1.1.1">
            <polyline id="Fig:densplot_01.xyplot.lines.group.6.panel.1.1.1.1" points="59,54 59.4,54.01 59.79,54.03 60.19,54.05 60.59,54.08 60.98,54.11 61.38,54.15 61.78,54.2 62.18,54.27 62.57,54.34 62.97,54.43 63.37,54.54 63.76,54.67 64.16,54.82 64.56,55 64.95,55.21 65.35,55.45 65.75,55.73 66.14,56.05 66.54,56.42 66.94,56.84 67.33,57.31 67.73,57.83 68.13,58.42 68.53,59.06 68.92,59.78 69.32,60.56 69.72,61.41 70.11,62.33 70.51,63.31 70.91,64.36 71.3,65.49 71.7,66.68 72.1,67.93 72.49,69.23 72.89,70.58 73.29,71.97 73.68,73.41 74.08,74.89 74.48,76.38 74.88,77.89 75.27,79.42 75.67,80.94 76.07,82.46 76.46,83.97 76.86,85.46 77.26,86.93 77.65,88.37 78.05,89.77 78.45,91.13 78.84,92.45 79.24,93.72 79.64,94.94 80.03,96.12 80.43,97.25 80.83,98.33 81.23,99.35 81.62,100.34 82.02,101.28 82.42,102.17 82.81,103.03 83.21,103.85 83.61,104.64 84,105.39 84.4,106.12 84.8,106.83 85.19,107.51 85.59,108.17 85.99,108.82 86.38,109.45 86.78,110.06 87.18,110.67 87.58,111.26 87.97,111.85 88.37,112.42 88.77,112.97 89.16,113.52 89.56,114.05 89.96,114.57 90.35,115.07 90.75,115.54 91.15,116 91.54,116.43 91.94,116.84 92.34,117.22 92.73,117.58 93.13,117.9 93.53,118.19 93.93,118.45 94.32,118.69 94.72,118.9 95.12,119.08 95.51,119.24 95.91,119.39 96.31,119.52 96.7,119.64 97.1,119.75 97.5,119.87 97.89,119.99 98.29,120.12 98.69,120.27 99.08,120.44 99.48,120.63 99.88,120.85 100.28,121.12 100.67,121.42 101.07,121.76 101.47,122.15 101.86,122.58 102.26,123.05 102.66,123.58 103.05,124.15 103.45,124.76 103.85,125.42 104.24,126.11 104.64,126.84 105.04,127.6 105.43,128.4 105.83,129.22 106.23,130.07 106.63,130.93 107.02,131.8 107.42,132.69 107.82,133.59 108.21,134.48 108.61,135.38 109.01,136.28 109.4,137.17 109.8,138.05 110.2,138.92 110.59,139.78 110.99,140.62 111.39,141.45 111.78,142.26 112.18,143.05 112.58,143.82 112.98,144.57 113.37,145.31 113.77,146.02 114.17,146.72 114.56,147.39 114.96,148.04 115.36,148.68 115.75,149.29 116.15,149.9 116.55,150.48 116.94,151.05 117.34,151.61 117.74,152.16 118.13,152.7 118.53,153.23 118.93,153.76 119.33,154.29 119.72,154.82 120.12,155.36 120.52,155.9 120.91,156.46 121.31,157.03 121.71,157.61 122.1,158.22 122.5,158.85 122.9,159.5 123.29,160.18 123.69,160.89 124.09,161.63 124.48,162.4 124.88,163.2 125.28,164.03 125.68,164.89 126.07,165.78 126.47,166.69 126.87,167.63 127.26,168.59 127.66,169.56 128.06,170.55 128.45,171.55 128.85,172.55 129.25,173.56 129.64,174.57 130.04,175.57 130.44,176.57 130.83,177.56 131.23,178.53 131.63,179.48 132.03,180.41 132.42,181.32 132.82,182.21 133.22,183.07 133.61,183.91 134.01,184.71 134.41,185.48 134.8,186.23 135.2,186.94 135.6,187.63 135.99,188.28 136.39,188.91 136.79,189.51 137.18,190.09 137.58,190.64 137.98,191.18 138.38,191.69 138.77,192.19 139.17,192.67 139.57,193.14 139.96,193.6 140.36,194.06 140.76,194.5 141.15,194.94 141.55,195.38 141.95,195.81 142.34,196.25 142.74,196.68 143.14,197.1 143.53,197.53 143.93,197.95 144.33,198.38 144.73,198.79 145.12,199.2 145.52,199.61 145.92,200.01 146.31,200.4 146.71,200.78 147.11,201.16 147.5,201.53 147.9,201.88 148.3,202.23 148.69,202.57 149.09,202.91 149.49,203.23 149.88,203.55 150.28,203.86 150.68,204.17 151.08,204.47 151.47,204.76 151.87,205.06 152.27,205.35 152.66,205.64 153.06,205.93 153.46,206.21 153.85,206.5 154.25,206.79 154.65,207.08 155.04,207.36 155.44,207.65 155.84,207.93 156.23,208.22 156.63,208.49 157.03,208.77 157.43,209.03 157.82,209.29 158.22,209.54 158.62,209.78 159.01,210 159.41,210.2 159.81,210.39 160.2,210.55 160.6,210.69 161,210.79 161.39,210.86 161.79,210.9 162.19,210.89 162.58,210.85 162.98,210.77 163.38,210.63 163.78,210.44 164.17,210.2 164.57,209.91 164.97,209.57 165.36,209.18 165.76,208.72 166.16,208.2 166.55,207.63 166.95,207.02 167.35,206.35 167.74,205.63 168.14,204.85 168.54,204.03 168.93,203.18 169.33,202.29 169.73,201.36 170.13,200.41 170.52,199.42 170.92,198.42 171.32,197.4 171.71,196.37 172.11,195.33 172.51,194.28 172.9,193.23 173.3,192.18 173.7,191.12 174.09,190.07 174.49,189.02 174.89,187.97 175.28,186.93 175.68,185.88 176.08,184.84 176.48,183.8 176.87,182.75 177.27,181.7 177.67,180.65 178.06,179.58 178.46,178.51 178.86,177.42 179.25,176.32 179.65,175.21 180.05,174.08 180.44,172.93 180.84,171.77 181.24,170.58 181.63,169.38 182.03,168.16 182.43,166.91 182.83,165.65 183.22,164.38 183.62,163.09 184.02,161.78 184.41,160.46 184.81,159.14 185.21,157.8 185.6,156.46 186,155.12 186.4,153.77 186.79,152.42 187.19,151.08 187.59,149.75 187.98,148.42 188.38,147.1 188.78,145.79 189.18,144.49 189.57,143.21 189.97,141.94 190.37,140.69 190.76,139.45 191.16,138.23 191.56,137.03 191.95,135.84 192.35,134.67 192.75,133.52 193.14,132.39 193.54,131.27 193.94,130.17 194.33,129.08 194.73,128.01 195.13,126.96 195.53,125.93 195.92,124.91 196.32,123.9 196.72,122.91 197.11,121.94 197.51,120.99 197.91,120.05 198.3,119.13 198.7,118.22 199.1,117.33 199.49,116.46 199.89,115.61 200.29,114.77 200.68,113.96 201.08,113.15 201.48,112.36 201.88,111.59 202.27,110.83 202.67,110.09 203.07,109.36 203.46,108.63 203.86,107.92 204.26,107.22 204.65,106.53 205.05,105.84 205.45,105.15 205.84,104.48 206.24,103.8 206.64,103.13 207.03,102.46 207.43,101.79 207.83,101.12 208.23,100.45 208.62,99.78 209.02,99.11 209.42,98.44 209.81,97.78 210.21,97.11 210.61,96.44 211,95.77 211.4,95.11 211.8,94.45 212.19,93.79 212.59,93.13 212.99,92.48 213.38,91.84 213.78,91.2 214.18,90.57 214.58,89.95 214.97,89.34 215.37,88.75 215.77,88.16 216.16,87.59 216.56,87.04 216.96,86.51 217.35,85.98 217.75,85.48 218.15,84.99 218.54,84.52 218.94,84.07 219.34,83.63 219.73,83.2 220.13,82.79 220.53,82.4 220.93,82.01 221.32,81.63 221.72,81.26 222.12,80.9 222.51,80.53 222.91,80.17 223.31,79.81 223.7,79.45 224.1,79.09 224.5,78.72 224.89,78.34 225.29,77.96 225.69,77.57 226.08,77.17 226.48,76.77 226.88,76.36 227.28,75.94 227.67,75.51 228.07,75.08 228.47,74.65 228.86,74.21 229.26,73.77 229.66,73.34 230.05,72.9 230.45,72.47 230.85,72.05 231.24,71.63 231.64,71.23 232.04,70.83 232.43,70.45 232.83,70.07 233.23,69.72 233.63,69.38 234.02,69.05 234.42,68.75 234.82,68.45 235.21,68.17 235.61,67.9 236.01,67.65 236.4,67.41 236.8,67.18 237.2,66.96 237.59,66.74 237.99,66.52 238.39,66.31 238.78,66.1 239.18,65.89 239.58,65.67 239.98,65.44 240.37,65.21 240.77,64.96 241.17,64.7 241.56,64.43 241.96,64.15 242.36,63.86 242.75,63.55 243.15,63.22 243.55,62.88 243.94,62.53 244.34,62.17 244.74,61.8 245.13,61.42 245.53,61.03 245.93,60.64 246.33,60.25 246.72,59.86 247.12,59.47 247.52,59.08 247.91,58.7 248.31,58.33 248.71,57.98 249.1,57.63 249.5,57.3 249.9,56.98 250.29,56.69 250.69,56.41 251.09,56.14 251.48,55.9 251.88,55.67 252.28,55.47 252.68,55.28 253.07,55.11 253.47,54.95 253.87,54.82 254.26,54.69 254.66,54.58 255.06,54.49 255.45,54.41 255.85,54.33 256.25,54.27 256.64,54.22 257.04,54.17 257.44,54.13 257.83,54.1 258.23,54.07 258.63,54.05 259.03,54.03 259.42,54.01 259.82,54 260.22,53.99 260.61,53.98 261.01,53.98 261.41,53.97 261.8,53.97" stroke-dasharray="none" stroke="rgb(31,120,180)" stroke-width="0.75" opacity="1" stroke-opacity="1" fill="none"/>
          </g>
          <g id="Fig:densplot_01.xyplot.lines.group.7.panel.1.1.1">
            <polyline id="Fig:densplot_01.xyplot.lines.group.7.panel.1.1.1.1" points="59.51,53.99 59.91,54 60.3,54.01 60.7,54.02 61.09,54.05 61.49,54.07 61.88,54.1 62.28,54.14 62.67,54.19 63.07,54.26 63.46,54.33 63.86,54.42 64.25,54.52 64.65,54.65 65.04,54.81 65.43,54.99 65.83,55.19 66.22,55.44 66.62,55.71 67.01,56.04 67.41,56.41 67.8,56.82 68.2,57.29 68.59,57.82 68.99,58.39 69.38,59.03 69.78,59.75 70.17,60.52 70.57,61.35 70.96,62.25 71.36,63.21 71.75,64.23 72.15,65.32 72.54,66.46 72.93,67.65 73.33,68.88 73.72,70.15 74.12,71.46 74.51,72.8 74.91,74.16 75.3,75.53 75.7,76.9 76.09,78.28 76.49,79.65 76.88,81 77.28,82.33 77.67,83.64 78.07,84.91 78.46,86.16 78.86,87.36 79.25,88.53 79.65,89.64 80.04,90.72 80.43,91.75 80.83,92.74 81.22,93.69 81.62,94.6 82.01,95.46 82.41,96.29 82.8,97.08 83.2,97.84 83.59,98.57 83.99,99.27 84.38,99.94 84.78,100.59 85.17,101.22 85.57,101.83 85.96,102.42 86.36,103.01 86.75,103.58 87.15,104.14 87.54,104.7 87.93,105.25 88.33,105.81 88.72,106.37 89.12,106.92 89.51,107.49 89.91,108.06 90.3,108.63 90.7,109.21 91.09,109.8 91.49,110.39 91.88,110.99 92.28,111.59 92.67,112.19 93.07,112.79 93.46,113.39 93.86,113.97 94.25,114.54 94.65,115.1 95.04,115.63 95.43,116.14 95.83,116.63 96.22,117.09 96.62,117.51 97.01,117.9 97.41,118.26 97.8,118.58 98.2,118.87 98.59,119.12 98.99,119.35 99.38,119.55 99.78,119.72 100.17,119.88 100.57,120.03 100.96,120.17 101.36,120.31 101.75,120.45 102.15,120.6 102.54,120.77 102.93,120.96 103.33,121.17 103.72,121.41 104.12,121.7 104.51,122.01 104.91,122.37 105.3,122.76 105.7,123.19 106.09,123.66 106.49,124.18 106.88,124.74 107.28,125.34 107.67,125.97 108.07,126.64 108.46,127.34 108.86,128.07 109.25,128.84 109.65,129.63 110.04,130.44 110.43,131.28 110.83,132.13 111.22,133.01 111.62,133.9 112.01,134.81 112.41,135.73 112.8,136.66 113.2,137.6 113.59,138.55 113.99,139.5 114.38,140.46 114.78,141.41 115.17,142.36 115.57,143.3 115.96,144.24 116.36,145.17 116.75,146.09 117.14,146.99 117.54,147.87 117.93,148.74 118.33,149.6 118.72,150.43 119.12,151.24 119.51,152.03 119.91,152.81 120.3,153.56 120.7,154.31 121.09,155.03 121.49,155.74 121.88,156.45 122.28,157.14 122.67,157.83 123.07,158.51 123.46,159.2 123.86,159.89 124.25,160.59 124.64,161.29 125.04,162.01 125.43,162.73 125.83,163.48 126.22,164.24 126.62,165.02 127.01,165.82 127.41,166.63 127.8,167.47 128.2,168.32 128.59,169.19 128.99,170.08 129.38,170.98 129.78,171.89 130.17,172.81 130.57,173.73 130.96,174.66 131.36,175.6 131.75,176.52 132.14,177.45 132.54,178.37 132.93,179.28 133.33,180.18 133.72,181.06 134.12,181.93 134.51,182.78 134.91,183.61 135.3,184.43 135.7,185.23 136.09,186 136.49,186.74 136.88,187.47 137.28,188.18 137.67,188.86 138.07,189.53 138.46,190.17 138.86,190.79 139.25,191.39 139.64,191.97 140.04,192.54 140.43,193.1 140.83,193.64 141.22,194.18 141.62,194.7 142.01,195.23 142.41,195.75 142.8,196.27 143.2,196.79 143.59,197.31 143.99,197.84 144.38,198.37 144.78,198.9 145.17,199.45 145.57,199.99 145.96,200.55 146.36,201.1 146.75,201.66 147.14,202.22 147.54,202.78 147.93,203.33 148.33,203.89 148.72,204.44 149.12,204.98 149.51,205.52 149.91,206.05 150.3,206.58 150.7,207.1 151.09,207.61 151.49,208.12 151.88,208.62 152.28,209.12 152.67,209.61 153.07,210.1 153.46,210.59 153.86,211.07 154.25,211.55 154.64,212.03 155.04,212.51 155.43,212.98 155.83,213.45 156.22,213.92 156.62,214.37 157.01,214.82 157.41,215.26 157.8,215.69 158.2,216.11 158.59,216.5 158.99,216.88 159.38,217.24 159.78,217.58 160.17,217.9 160.57,218.18 160.96,218.44 161.36,218.67 161.75,218.87 162.14,219.04 162.54,219.17 162.93,219.27 163.33,219.33 163.72,219.35 164.12,219.34 164.51,219.28 164.91,219.19 165.3,219.05 165.7,218.87 166.09,218.65 166.49,218.38 166.88,218.07 167.28,217.72 167.67,217.32 168.07,216.88 168.46,216.39 168.86,215.85 169.25,215.27 169.64,214.65 170.04,213.99 170.43,213.27 170.83,212.52 171.22,211.71 171.62,210.87 172.01,209.99 172.41,209.07 172.8,208.11 173.2,207.11 173.59,206.07 173.99,205.01 174.38,203.91 174.78,202.78 175.17,201.63 175.57,200.46 175.96,199.26 176.36,198.05 176.75,196.82 177.14,195.57 177.54,194.32 177.93,193.05 178.33,191.77 178.72,190.49 179.12,189.19 179.51,187.89 179.91,186.58 180.3,185.27 180.7,183.94 181.09,182.6 181.49,181.26 181.88,179.9 182.28,178.53 182.67,177.14 183.07,175.74 183.46,174.32 183.86,172.89 184.25,171.45 184.64,169.99 185.04,168.52 185.43,167.04 185.83,165.54 186.22,164.04 186.62,162.53 187.01,161.01 187.41,159.49 187.8,157.97 188.2,156.45 188.59,154.94 188.99,153.43 189.38,151.93 189.78,150.43 190.17,148.94 190.57,147.47 190.96,146 191.36,144.54 191.75,143.08 192.14,141.64 192.54,140.2 192.93,138.77 193.33,137.35 193.72,135.93 194.12,134.52 194.51,133.11 194.91,131.7 195.3,130.3 195.7,128.9 196.09,127.51 196.49,126.12 196.88,124.74 197.28,123.36 197.67,122 198.07,120.65 198.46,119.31 198.86,117.99 199.25,116.69 199.64,115.41 200.04,114.15 200.43,112.92 200.83,111.72 201.22,110.55 201.62,109.4 202.01,108.3 202.41,107.23 202.8,106.2 203.2,105.2 203.59,104.25 203.99,103.33 204.38,102.45 204.78,101.62 205.17,100.82 205.57,100.07 205.96,99.34 206.36,98.65 206.75,97.99 207.14,97.36 207.54,96.77 207.93,96.19 208.33,95.64 208.72,95.11 209.12,94.59 209.51,94.08 209.91,93.58 210.3,93.09 210.7,92.6 211.09,92.12 211.49,91.63 211.88,91.14 212.28,90.65 212.67,90.15 213.07,89.64 213.46,89.13 213.86,88.61 214.25,88.09 214.64,87.56 215.04,87.01 215.43,86.47 215.83,85.91 216.22,85.35 216.62,84.79 217.01,84.22 217.41,83.65 217.8,83.07 218.2,82.5 218.59,81.92 218.99,81.34 219.38,80.76 219.78,80.18 220.17,79.61 220.57,79.03 220.96,78.46 221.36,77.9 221.75,77.34 222.14,76.79 222.54,76.25 222.93,75.71 223.33,75.19 223.72,74.67 224.12,74.17 224.51,73.67 224.91,73.2 225.3,72.73 225.7,72.29 226.09,71.85 226.49,71.43 226.88,71.03 227.28,70.65 227.67,70.29 228.07,69.95 228.46,69.62 228.86,69.32 229.25,69.03 229.64,68.77 230.04,68.53 230.43,68.31 230.83,68.1 231.22,67.92 231.62,67.75 232.01,67.59 232.41,67.46 232.8,67.34 233.2,67.22 233.59,67.12 233.99,67.03 234.38,66.94 234.78,66.85 235.17,66.77 235.57,66.68 235.96,66.6 236.36,66.5 236.75,66.4 237.14,66.29 237.54,66.17 237.93,66.03 238.33,65.88 238.72,65.72 239.12,65.54 239.51,65.35 239.91,65.13 240.3,64.9 240.7,64.65 241.09,64.39 241.49,64.1 241.88,63.8 242.28,63.49 242.67,63.16 243.07,62.82 243.46,62.47 243.86,62.1 244.25,61.73 244.64,61.35 245.04,60.97 245.43,60.59 245.83,60.2 246.22,59.82 246.62,59.44 247.01,59.06 247.41,58.7 247.8,58.34 248.2,57.99 248.59,57.65 248.99,57.33 249.38,57.02 249.78,56.73 250.17,56.45 250.57,56.2 250.96,55.95 251.36,55.73 251.75,55.52 252.14,55.33 252.54,55.16 252.93,55 253.33,54.86 253.72,54.73 254.12,54.62 254.51,54.52 254.91,54.44 255.3,54.36 255.7,54.29 256.09,54.24 256.49,54.19 256.88,54.15 257.28,54.11 257.67,54.08 258.07,54.06 258.46,54.04 258.86,54.02 259.25,54.01 259.64,54 260.04,53.99 260.43,53.98 260.83,53.97 261.22,53.97" stroke-dasharray="none" stroke="rgb(31,120,180)" stroke-width="0.75" opacity="1" stroke-opacity="1" fill="none"/>
          </g>
          <g id="Fig:densplot_01.xyplot.lines.group.8.panel.1.1.1">
            <polyline id="Fig:densplot_01.xyplot.lines.group.8.panel.1.1.1.1" points="59.39,53.99 59.79,54.01 60.18,54.02 60.58,54.04 60.98,54.07 61.37,54.1 61.77,54.14 62.16,54.18 62.56,54.24 62.95,54.31 63.35,54.4 63.74,54.5 64.14,54.62 64.53,54.76 64.93,54.93 65.32,55.13 65.72,55.36 66.12,55.63 66.51,55.94 66.91,56.29 67.3,56.69 67.7,57.14 68.09,57.65 68.49,58.22 68.88,58.84 69.28,59.53 69.67,60.28 70.07,61.09 70.46,61.98 70.86,62.94 71.26,63.96 71.65,65.04 72.05,66.18 72.44,67.37 72.84,68.63 73.23,69.93 73.63,71.27 74.02,72.65 74.42,74.05 74.81,75.48 75.21,76.93 75.6,78.38 76,79.84 76.4,81.29 76.79,82.72 77.19,84.14 77.58,85.54 77.98,86.9 78.37,88.23 78.77,89.52 79.16,90.78 79.56,91.99 79.95,93.15 80.35,94.27 80.74,95.34 81.14,96.37 81.54,97.35 81.93,98.29 82.33,99.18 82.72,100.03 83.12,100.84 83.51,101.62 83.91,102.36 84.3,103.07 84.7,103.75 85.09,104.4 85.49,105.03 85.88,105.64 86.28,106.23 86.68,106.81 87.07,107.37 87.47,107.92 87.86,108.46 88.26,108.99 88.65,109.52 89.05,110.04 89.44,110.55 89.84,111.06 90.23,111.56 90.63,112.06 91.02,112.55 91.42,113.03 91.82,113.5 92.21,113.95 92.61,114.4 93,114.82 93.4,115.24 93.79,115.63 94.19,116.01 94.58,116.36 94.98,116.7 95.37,117.01 95.77,117.3 96.16,117.57 96.56,117.83 96.96,118.06 97.35,118.28 97.75,118.49 98.14,118.68 98.54,118.87 98.93,119.05 99.33,119.24 99.72,119.42 100.12,119.62 100.51,119.82 100.91,120.03 101.3,120.27 101.7,120.52 102.1,120.79 102.49,121.09 102.89,121.42 103.28,121.77 103.68,122.15 104.07,122.57 104.47,123.01 104.86,123.49 105.26,124 105.65,124.54 106.05,125.1 106.44,125.7 106.84,126.33 107.24,126.99 107.63,127.68 108.03,128.39 108.42,129.13 108.82,129.9 109.21,130.69 109.61,131.51 110,132.34 110.4,133.2 110.79,134.08 111.19,134.97 111.58,135.88 111.98,136.81 112.38,137.74 112.77,138.68 113.17,139.63 113.56,140.58 113.96,141.53 114.35,142.48 114.75,143.41 115.14,144.34 115.54,145.25 115.93,146.15 116.33,147.03 116.73,147.89 117.12,148.72 117.52,149.53 117.91,150.32 118.31,151.08 118.7,151.82 119.1,152.54 119.49,153.23 119.89,153.9 120.28,154.56 120.68,155.2 121.07,155.82 121.47,156.44 121.87,157.05 122.26,157.65 122.66,158.26 123.05,158.87 123.45,159.48 123.84,160.1 124.24,160.73 124.63,161.38 125.03,162.04 125.42,162.71 125.82,163.4 126.21,164.11 126.61,164.85 127.01,165.6 127.4,166.36 127.8,167.15 128.19,167.95 128.59,168.77 128.98,169.6 129.38,170.45 129.77,171.31 130.17,172.18 130.56,173.06 130.96,173.94 131.35,174.83 131.75,175.73 132.15,176.63 132.54,177.53 132.94,178.42 133.33,179.32 133.73,180.21 134.12,181.1 134.52,181.98 134.91,182.86 135.31,183.73 135.7,184.59 136.1,185.44 136.49,186.28 136.89,187.12 137.29,187.94 137.68,188.75 138.08,189.55 138.47,190.34 138.87,191.12 139.26,191.89 139.66,192.64 140.05,193.38 140.45,194.11 140.84,194.83 141.24,195.52 141.63,196.21 142.03,196.88 142.43,197.54 142.82,198.18 143.22,198.8 143.61,199.4 144.01,199.99 144.4,200.55 144.8,201.1 145.19,201.62 145.59,202.13 145.98,202.61 146.38,203.07 146.77,203.51 147.17,203.92 147.57,204.32 147.96,204.69 148.36,205.05 148.75,205.38 149.15,205.69 149.54,205.99 149.94,206.28 150.33,206.56 150.73,206.83 151.12,207.1 151.52,207.37 151.91,207.63 152.31,207.91 152.71,208.19 153.1,208.48 153.5,208.79 153.89,209.11 154.29,209.44 154.68,209.79 155.08,210.16 155.47,210.54 155.87,210.94 156.26,211.34 156.66,211.75 157.05,212.17 157.45,212.59 157.85,213 158.24,213.4 158.64,213.79 159.03,214.15 159.43,214.49 159.82,214.81 160.22,215.08 160.61,215.32 161.01,215.51 161.4,215.66 161.8,215.76 162.19,215.81 162.59,215.81 162.99,215.77 163.38,215.67 163.78,215.52 164.17,215.33 164.57,215.09 164.96,214.81 165.36,214.5 165.75,214.13 166.15,213.74 166.54,213.31 166.94,212.86 167.33,212.37 167.73,211.86 168.13,211.32 168.52,210.76 168.92,210.17 169.31,209.56 169.71,208.93 170.1,208.27 170.5,207.59 170.89,206.88 171.29,206.15 171.68,205.4 172.08,204.62 172.47,203.81 172.87,202.98 173.27,202.12 173.66,201.23 174.06,200.31 174.45,199.37 174.85,198.41 175.24,197.42 175.64,196.4 176.03,195.35 176.43,194.29 176.82,193.2 177.22,192.08 177.61,190.95 178.01,189.78 178.41,188.6 178.8,187.39 179.2,186.16 179.59,184.91 179.99,183.64 180.38,182.34 180.78,181.03 181.17,179.69 181.57,178.33 181.96,176.95 182.36,175.55 182.75,174.13 183.15,172.69 183.55,171.24 183.94,169.77 184.34,168.29 184.73,166.8 185.13,165.31 185.52,163.8 185.92,162.3 186.31,160.79 186.71,159.29 187.1,157.79 187.5,156.3 187.89,154.82 188.29,153.35 188.69,151.89 189.08,150.45 189.48,149.02 189.87,147.6 190.27,146.21 190.66,144.82 191.06,143.46 191.45,142.11 191.85,140.77 192.24,139.44 192.64,138.14 193.03,136.84 193.43,135.56 193.83,134.29 194.22,133.03 194.62,131.79 195.01,130.56 195.41,129.34 195.8,128.13 196.2,126.93 196.59,125.75 196.99,124.58 197.38,123.42 197.78,122.28 198.17,121.15 198.57,120.03 198.97,118.92 199.36,117.83 199.76,116.75 200.15,115.68 200.55,114.62 200.94,113.57 201.34,112.53 201.73,111.51 202.13,110.49 202.52,109.49 202.92,108.49 203.31,107.51 203.71,106.53 204.11,105.57 204.5,104.63 204.9,103.69 205.29,102.78 205.69,101.88 206.08,101 206.48,100.14 206.87,99.3 207.27,98.49 207.66,97.7 208.06,96.94 208.46,96.2 208.85,95.49 209.25,94.8 209.64,94.15 210.04,93.53 210.43,92.92 210.83,92.34 211.22,91.79 211.62,91.25 212.01,90.73 212.41,90.23 212.8,89.74 213.2,89.26 213.6,88.78 213.99,88.31 214.39,87.84 214.78,87.37 215.18,86.9 215.57,86.42 215.97,85.94 216.36,85.44 216.76,84.94 217.15,84.42 217.55,83.9 217.94,83.36 218.34,82.82 218.74,82.27 219.13,81.71 219.53,81.14 219.92,80.56 220.32,79.99 220.71,79.41 221.11,78.83 221.5,78.25 221.9,77.68 222.29,77.12 222.69,76.56 223.08,76.01 223.48,75.47 223.88,74.94 224.27,74.42 224.67,73.93 225.06,73.44 225.46,72.98 225.85,72.53 226.25,72.09 226.64,71.68 227.04,71.28 227.43,70.9 227.83,70.54 228.22,70.2 228.62,69.87 229.02,69.56 229.41,69.26 229.81,68.98 230.2,68.72 230.6,68.46 230.99,68.22 231.39,68 231.78,67.78 232.18,67.58 232.57,67.39 232.97,67.21 233.36,67.03 233.76,66.87 234.16,66.72 234.55,66.58 234.95,66.44 235.34,66.32 235.74,66.2 236.13,66.09 236.53,65.98 236.92,65.88 237.32,65.79 237.71,65.69 238.11,65.6 238.5,65.5 238.9,65.4 239.3,65.3 239.69,65.19 240.09,65.07 240.48,64.94 240.88,64.8 241.27,64.64 241.67,64.47 242.06,64.27 242.46,64.06 242.85,63.82 243.25,63.57 243.64,63.29 244.04,63 244.44,62.68 244.83,62.34 245.23,61.99 245.62,61.62 246.02,61.24 246.41,60.85 246.81,60.45 247.2,60.05 247.6,59.65 247.99,59.25 248.39,58.85 248.78,58.46 249.18,58.08 249.58,57.72 249.97,57.37 250.37,57.03 250.76,56.71 251.16,56.42 251.55,56.14 251.95,55.89 252.34,55.65 252.74,55.44 253.13,55.24 253.53,55.06 253.92,54.91 254.32,54.77 254.72,54.65 255.11,54.54 255.51,54.44 255.9,54.36 256.3,54.29 256.69,54.23 257.09,54.18 257.48,54.14 257.88,54.1 258.27,54.07 258.67,54.05 259.06,54.03 259.46,54.01 259.86,54 260.25,53.99 260.65,53.98 261.04,53.98 261.44,53.97" stroke-dasharray="none" stroke="rgb(31,120,180)" stroke-width="0.75" opacity="1" stroke-opacity="1" fill="none"/>
          </g>
          <g id="Fig:densplot_01.xyplot.lines.group.9.panel.1.1.1">
            <polyline id="Fig:densplot_01.xyplot.lines.group.9.panel.1.1.1.1" points="59.11,54 59.5,54.02 59.9,54.04 60.3,54.06 60.69,54.09 61.09,54.12 61.49,54.17 61.88,54.22 62.28,54.29 62.68,54.37 63.07,54.47 63.47,54.59 63.87,54.73 64.26,54.9 64.66,55.1 65.05,55.33 65.45,55.6 65.85,55.9 66.24,56.26 66.64,56.67 67.04,57.13 67.43,57.65 67.83,58.23 68.23,58.87 68.62,59.59 69.02,60.38 69.42,61.24 69.81,62.18 70.21,63.18 70.6,64.26 71,65.42 71.4,66.65 71.79,67.94 72.19,69.29 72.59,70.69 72.98,72.14 73.38,73.63 73.78,75.16 74.17,76.71 74.57,78.28 74.97,79.85 75.36,81.42 75.76,82.97 76.16,84.51 76.55,86.01 76.95,87.48 77.34,88.91 77.74,90.29 78.14,91.62 78.53,92.89 78.93,94.1 79.33,95.25 79.72,96.35 80.12,97.39 80.52,98.37 80.91,99.29 81.31,100.17 81.71,100.99 82.1,101.78 82.5,102.53 82.89,103.24 83.29,103.93 83.69,104.58 84.08,105.22 84.48,105.84 84.88,106.44 85.27,107.03 85.67,107.61 86.07,108.18 86.46,108.75 86.86,109.31 87.26,109.86 87.65,110.4 88.05,110.93 88.44,111.45 88.84,111.97 89.24,112.47 89.63,112.95 90.03,113.43 90.43,113.88 90.82,114.32 91.22,114.74 91.62,115.14 92.01,115.52 92.41,115.88 92.81,116.22 93.2,116.54 93.6,116.85 93.99,117.13 94.39,117.4 94.79,117.65 95.18,117.89 95.58,118.11 95.98,118.33 96.37,118.54 96.77,118.73 97.17,118.93 97.56,119.12 97.96,119.32 98.36,119.51 98.75,119.71 99.15,119.92 99.54,120.13 99.94,120.36 100.34,120.6 100.73,120.86 101.13,121.14 101.53,121.44 101.92,121.76 102.32,122.11 102.72,122.49 103.11,122.9 103.51,123.35 103.91,123.83 104.3,124.34 104.7,124.89 105.09,125.49 105.49,126.12 105.89,126.79 106.28,127.49 106.68,128.23 107.08,129 107.47,129.8 107.87,130.64 108.27,131.5 108.66,132.38 109.06,133.28 109.46,134.2 109.85,135.13 110.25,136.07 110.64,137.01 111.04,137.95 111.44,138.89 111.83,139.82 112.23,140.74 112.63,141.64 113.02,142.52 113.42,143.39 113.82,144.23 114.21,145.05 114.61,145.85 115.01,146.61 115.4,147.34 115.8,148.04 116.2,148.72 116.59,149.37 116.99,149.99 117.38,150.59 117.78,151.16 118.18,151.71 118.57,152.24 118.97,152.76 119.37,153.27 119.76,153.77 120.16,154.27 120.56,154.77 120.95,155.27 121.35,155.79 121.75,156.32 122.14,156.87 122.54,157.44 122.93,158.04 123.33,158.66 123.73,159.31 124.12,159.99 124.52,160.71 124.92,161.46 125.31,162.24 125.71,163.05 126.11,163.88 126.5,164.75 126.9,165.64 127.3,166.55 127.69,167.48 128.09,168.42 128.48,169.38 128.88,170.35 129.28,171.31 129.67,172.28 130.07,173.25 130.47,174.21 130.86,175.16 131.26,176.11 131.66,177.03 132.05,177.94 132.45,178.84 132.85,179.72 133.24,180.57 133.64,181.41 134.03,182.23 134.43,183.03 134.83,183.8 135.22,184.56 135.62,185.3 136.02,186.03 136.41,186.74 136.81,187.43 137.21,188.11 137.6,188.78 138,189.43 138.4,190.07 138.79,190.7 139.19,191.32 139.58,191.93 139.98,192.53 140.38,193.12 140.77,193.69 141.17,194.25 141.57,194.79 141.96,195.32 142.36,195.83 142.76,196.32 143.15,196.8 143.55,197.25 143.95,197.68 144.34,198.08 144.74,198.46 145.13,198.82 145.53,199.15 145.93,199.46 146.32,199.74 146.72,200 147.12,200.24 147.51,200.45 147.91,200.65 148.31,200.84 148.7,201 149.1,201.16 149.5,201.31 149.89,201.46 150.29,201.6 150.68,201.75 151.08,201.9 151.48,202.07 151.87,202.24 152.27,202.43 152.67,202.64 153.06,202.86 153.46,203.12 153.86,203.39 154.25,203.69 154.65,204.02 155.05,204.37 155.44,204.75 155.84,205.15 156.24,205.58 156.63,206.03 157.03,206.5 157.42,206.98 157.82,207.48 158.22,207.99 158.61,208.5 159.01,209.02 159.41,209.52 159.8,210.02 160.2,210.51 160.6,210.97 160.99,211.4 161.39,211.8 161.79,212.17 162.18,212.49 162.58,212.77 162.97,213 163.37,213.16 163.77,213.26 164.16,213.3 164.56,213.28 164.96,213.18 165.35,213.02 165.75,212.77 166.15,212.45 166.54,212.05 166.94,211.59 167.34,211.06 167.73,210.47 168.13,209.79 168.52,209.06 168.92,208.26 169.32,207.42 169.71,206.53 170.11,205.59 170.51,204.61 170.9,203.6 171.3,202.56 171.7,201.49 172.09,200.41 172.49,199.32 172.89,198.21 173.28,197.1 173.68,195.99 174.07,194.88 174.47,193.77 174.87,192.67 175.26,191.58 175.66,190.49 176.06,189.42 176.45,188.34 176.85,187.28 177.25,186.22 177.64,185.16 178.04,184.1 178.44,183.04 178.83,181.98 179.23,180.91 179.62,179.83 180.02,178.73 180.42,177.63 180.81,176.5 181.21,175.36 181.61,174.21 182,173.03 182.4,171.83 182.8,170.6 183.19,169.36 183.59,168.09 183.99,166.81 184.38,165.5 184.78,164.18 185.17,162.84 185.57,161.48 185.97,160.11 186.36,158.74 186.76,157.35 187.16,155.96 187.55,154.57 187.95,153.17 188.35,151.78 188.74,150.39 189.14,149.01 189.54,147.63 189.93,146.26 190.33,144.91 190.72,143.57 191.12,142.24 191.52,140.92 191.91,139.62 192.31,138.34 192.71,137.07 193.1,135.82 193.5,134.57 193.9,133.35 194.29,132.13 194.69,130.93 195.09,129.75 195.48,128.57 195.88,127.41 196.28,126.26 196.67,125.12 197.07,123.99 197.46,122.87 197.86,121.77 198.26,120.67 198.65,119.59 199.05,118.52 199.45,117.47 199.84,116.43 200.24,115.41 200.64,114.41 201.03,113.42 201.43,112.46 201.83,111.51 202.22,110.59 202.62,109.68 203.01,108.8 203.41,107.94 203.81,107.1 204.2,106.28 204.6,105.48 205,104.71 205.39,103.95 205.79,103.2 206.19,102.48 206.58,101.76 206.98,101.07 207.38,100.38 207.77,99.7 208.17,99.04 208.56,98.38 208.96,97.73 209.36,97.09 209.75,96.45 210.15,95.83 210.55,95.21 210.94,94.59 211.34,93.98 211.74,93.39 212.13,92.8 212.53,92.22 212.93,91.65 213.32,91.09 213.72,90.53 214.11,90 214.51,89.47 214.91,88.96 215.3,88.45 215.7,87.96 216.1,87.47 216.49,87 216.89,86.53 217.29,86.07 217.68,85.62 218.08,85.16 218.48,84.71 218.87,84.26 219.27,83.81 219.66,83.36 220.06,82.9 220.46,82.44 220.85,81.97 221.25,81.5 221.65,81.01 222.04,80.52 222.44,80.03 222.84,79.52 223.23,79.01 223.63,78.49 224.03,77.97 224.42,77.45 224.82,76.92 225.21,76.4 225.61,75.88 226.01,75.36 226.4,74.85 226.8,74.34 227.2,73.85 227.59,73.37 227.99,72.89 228.39,72.44 228.78,72 229.18,71.57 229.58,71.17 229.97,70.77 230.37,70.4 230.76,70.05 231.16,69.71 231.56,69.39 231.95,69.09 232.35,68.8 232.75,68.53 233.14,68.28 233.54,68.04 233.94,67.81 234.33,67.59 234.73,67.39 235.13,67.19 235.52,67.01 235.92,66.82 236.32,66.65 236.71,66.48 237.11,66.3 237.5,66.13 237.9,65.96 238.3,65.78 238.69,65.6 239.09,65.42 239.49,65.22 239.88,65.02 240.28,64.8 240.68,64.57 241.07,64.33 241.47,64.08 241.87,63.81 242.26,63.53 242.66,63.24 243.05,62.93 243.45,62.6 243.85,62.27 244.24,61.92 244.64,61.56 245.04,61.2 245.43,60.83 245.83,60.45 246.23,60.07 246.62,59.69 247.02,59.32 247.42,58.94 247.81,58.58 248.21,58.22 248.6,57.87 249,57.53 249.4,57.21 249.79,56.9 250.19,56.61 250.59,56.34 250.98,56.09 251.38,55.85 251.78,55.63 252.17,55.42 252.57,55.24 252.97,55.07 253.36,54.92 253.76,54.79 254.15,54.67 254.55,54.56 254.95,54.47 255.34,54.39 255.74,54.32 256.14,54.26 256.53,54.21 256.93,54.16 257.33,54.12 257.72,54.09 258.12,54.07 258.52,54.04 258.91,54.03 259.31,54.01 259.7,54 260.1,53.99 260.5,53.98 260.89,53.98 261.29,53.97 261.69,53.97" stroke-dasharray="none" stroke="rgb(31,120,180)" stroke-width="0.75" opacity="1" stroke-opacity="1" fill="none"/>
          </g>
          <g id="Fig:densplot_01.xyplot.lines.group.10.panel.1.1.1">
            <polyline id="Fig:densplot_01.xyplot.lines.group.10.panel.1.1.1.1" points="59.44,53.99 59.84,54 60.23,54.02 60.63,54.03 61.02,54.06 61.42,54.09 61.81,54.12 62.21,54.16 62.6,54.22 63,54.28 63.39,54.36 63.79,54.46 64.18,54.57 64.58,54.7 64.97,54.86 65.37,55.05 65.76,55.27 66.16,55.52 66.55,55.81 66.95,56.13 67.34,56.51 67.74,56.94 68.13,57.42 68.53,57.96 68.93,58.54 69.32,59.19 69.72,59.91 70.11,60.69 70.51,61.54 70.9,62.45 71.3,63.42 71.69,64.45 72.09,65.55 72.48,66.7 72.88,67.91 73.27,69.17 73.67,70.47 74.06,71.81 74.46,73.18 74.85,74.57 75.25,75.99 75.64,77.41 76.04,78.84 76.43,80.27 76.83,81.69 77.22,83.09 77.62,84.47 78.01,85.83 78.41,87.15 78.8,88.44 79.2,89.68 79.59,90.88 79.99,92.03 80.38,93.14 80.78,94.2 81.17,95.21 81.57,96.17 81.96,97.08 82.36,97.94 82.75,98.75 83.15,99.52 83.54,100.25 83.94,100.93 84.33,101.58 84.73,102.19 85.12,102.77 85.52,103.32 85.91,103.85 86.31,104.36 86.7,104.85 87.1,105.32 87.49,105.78 87.89,106.23 88.28,106.67 88.68,107.11 89.07,107.55 89.47,107.98 89.86,108.41 90.26,108.85 90.65,109.28 91.05,109.72 91.44,110.15 91.84,110.59 92.23,111.03 92.63,111.47 93.02,111.9 93.42,112.33 93.81,112.76 94.21,113.18 94.6,113.59 95,114 95.39,114.4 95.79,114.8 96.18,115.19 96.58,115.57 96.98,115.95 97.37,116.32 97.77,116.69 98.16,117.06 98.56,117.42 98.95,117.79 99.35,118.15 99.74,118.52 100.14,118.89 100.53,119.26 100.93,119.64 101.32,120.02 101.72,120.41 102.11,120.81 102.51,121.21 102.9,121.62 103.3,122.04 103.69,122.46 104.09,122.9 104.48,123.34 104.88,123.8 105.27,124.27 105.67,124.75 106.06,125.24 106.46,125.76 106.85,126.29 107.25,126.84 107.64,127.41 108.04,128 108.43,128.62 108.83,129.27 109.22,129.94 109.62,130.64 110.01,131.37 110.41,132.13 110.8,132.92 111.2,133.74 111.59,134.59 111.99,135.47 112.38,136.37 112.78,137.29 113.17,138.24 113.57,139.2 113.96,140.17 114.36,141.15 114.75,142.14 115.15,143.13 115.54,144.11 115.94,145.09 116.33,146.05 116.73,146.99 117.12,147.92 117.52,148.81 117.91,149.69 118.31,150.53 118.7,151.34 119.1,152.12 119.49,152.86 119.89,153.57 120.28,154.25 120.68,154.9 121.07,155.53 121.47,156.12 121.86,156.69 122.26,157.25 122.65,157.79 123.05,158.32 123.44,158.84 123.84,159.36 124.23,159.88 124.63,160.41 125.03,160.95 125.42,161.5 125.82,162.07 126.21,162.67 126.61,163.28 127,163.93 127.4,164.6 127.79,165.3 128.19,166.04 128.58,166.81 128.98,167.61 129.37,168.45 129.77,169.32 130.16,170.23 130.56,171.16 130.95,172.12 131.35,173.12 131.74,174.13 132.14,175.16 132.53,176.21 132.93,177.26 133.32,178.32 133.72,179.39 134.11,180.44 134.51,181.49 134.9,182.52 135.3,183.53 135.69,184.52 136.09,185.47 136.48,186.39 136.88,187.27 137.27,188.12 137.67,188.92 138.06,189.68 138.46,190.4 138.85,191.07 139.25,191.7 139.64,192.3 140.04,192.86 140.43,193.39 140.83,193.9 141.22,194.38 141.62,194.85 142.01,195.31 142.41,195.76 142.8,196.22 143.2,196.68 143.59,197.16 143.99,197.65 144.38,198.16 144.78,198.69 145.17,199.24 145.57,199.82 145.96,200.41 146.36,201.04 146.75,201.67 147.15,202.33 147.54,203 147.94,203.67 148.33,204.35 148.73,205.04 149.12,205.71 149.52,206.38 149.91,207.03 150.31,207.67 150.7,208.29 151.1,208.88 151.49,209.45 151.89,209.98 152.28,210.5 152.68,210.98 153.08,211.44 153.47,211.86 153.87,212.26 154.26,212.64 154.66,212.99 155.05,213.33 155.45,213.65 155.84,213.95 156.24,214.24 156.63,214.51 157.03,214.78 157.42,215.03 157.82,215.28 158.21,215.52 158.61,215.75 159,215.97 159.4,216.19 159.79,216.39 160.19,216.58 160.58,216.76 160.98,216.92 161.37,217.06 161.77,217.19 162.16,217.29 162.56,217.37 162.95,217.43 163.35,217.46 163.74,217.46 164.14,217.43 164.53,217.37 164.93,217.28 165.32,217.15 165.72,216.98 166.11,216.78 166.51,216.54 166.9,216.27 167.3,215.95 167.69,215.6 168.09,215.2 168.48,214.77 168.88,214.29 169.27,213.78 169.67,213.23 170.06,212.64 170.46,212.01 170.85,211.34 171.25,210.63 171.64,209.88 172.04,209.1 172.43,208.29 172.83,207.44 173.22,206.55 173.62,205.64 174.01,204.69 174.41,203.7 174.8,202.69 175.2,201.65 175.59,200.58 175.99,199.47 176.38,198.34 176.78,197.18 177.17,195.99 177.57,194.78 177.96,193.54 178.36,192.27 178.75,190.98 179.15,189.66 179.54,188.32 179.94,186.95 180.33,185.56 180.73,184.14 181.13,182.71 181.52,181.25 181.92,179.78 182.31,178.28 182.71,176.77 183.1,175.25 183.5,173.71 183.89,172.16 184.29,170.61 184.68,169.05 185.08,167.49 185.47,165.92 185.87,164.36 186.26,162.81 186.66,161.26 187.05,159.72 187.45,158.19 187.84,156.68 188.24,155.18 188.63,153.69 189.03,152.22 189.42,150.77 189.82,149.33 190.21,147.91 190.61,146.5 191,145.11 191.4,143.73 191.79,142.36 192.19,141 192.58,139.65 192.98,138.31 193.37,136.98 193.77,135.65 194.16,134.33 194.56,133.02 194.95,131.72 195.35,130.42 195.74,129.13 196.14,127.85 196.53,126.58 196.93,125.32 197.32,124.06 197.72,122.83 198.11,121.61 198.51,120.4 198.9,119.21 199.3,118.03 199.69,116.87 200.09,115.73 200.48,114.61 200.88,113.5 201.27,112.42 201.67,111.35 202.06,110.29 202.46,109.26 202.85,108.25 203.25,107.26 203.64,106.28 204.04,105.32 204.43,104.37 204.83,103.45 205.22,102.54 205.62,101.65 206.01,100.78 206.41,99.93 206.8,99.1 207.2,98.28 207.59,97.49 207.99,96.71 208.38,95.95 208.78,95.22 209.18,94.49 209.57,93.79 209.97,93.11 210.36,92.44 210.76,91.78 211.15,91.14 211.55,90.51 211.94,89.9 212.34,89.3 212.73,88.7 213.13,88.12 213.52,87.54 213.92,86.97 214.31,86.41 214.71,85.86 215.1,85.31 215.5,84.77 215.89,84.24 216.29,83.71 216.68,83.18 217.08,82.67 217.47,82.16 217.87,81.65 218.26,81.15 218.66,80.66 219.05,80.17 219.45,79.69 219.84,79.21 220.24,78.74 220.63,78.27 221.03,77.81 221.42,77.35 221.82,76.9 222.21,76.45 222.61,76.01 223,75.57 223.4,75.14 223.79,74.71 224.19,74.28 224.58,73.87 224.98,73.46 225.37,73.05 225.77,72.65 226.16,72.26 226.56,71.88 226.95,71.51 227.35,71.15 227.74,70.8 228.14,70.46 228.53,70.13 228.93,69.81 229.32,69.5 229.72,69.21 230.11,68.93 230.51,68.66 230.9,68.4 231.3,68.16 231.69,67.92 232.09,67.7 232.48,67.5 232.88,67.3 233.27,67.12 233.67,66.94 234.06,66.77 234.46,66.62 234.85,66.47 235.25,66.33 235.64,66.19 236.04,66.06 236.44,65.94 236.83,65.82 237.23,65.7 237.62,65.58 238.02,65.46 238.41,65.33 238.81,65.21 239.2,65.07 239.6,64.93 239.99,64.78 240.39,64.63 240.78,64.46 241.18,64.28 241.57,64.08 241.97,63.87 242.36,63.65 242.76,63.4 243.15,63.15 243.55,62.88 243.94,62.59 244.34,62.28 244.73,61.96 245.13,61.63 245.52,61.28 245.92,60.92 246.31,60.56 246.71,60.19 247.1,59.82 247.5,59.44 247.89,59.07 248.29,58.7 248.68,58.33 249.08,57.98 249.47,57.63 249.87,57.3 250.26,56.98 250.66,56.68 251.05,56.4 251.45,56.13 251.84,55.88 252.24,55.65 252.63,55.44 253.03,55.25 253.42,55.08 253.82,54.92 254.21,54.78 254.61,54.66 255,54.55 255.4,54.46 255.79,54.38 256.19,54.3 256.58,54.24 256.98,54.19 257.37,54.15 257.77,54.11 258.16,54.08 258.56,54.06 258.95,54.04 259.35,54.02 259.74,54 260.14,53.99 260.53,53.98 260.93,53.98 261.32,53.97" stroke-dasharray="none" stroke="rgb(31,120,180)" stroke-width="0.75" opacity="1" stroke-opacity="1" fill="none"/>
          </g>
          <g id="Fig:densplot_01.xyplot.lines.group.11.panel.1.1.1">
            <polyline id="Fig:densplot_01.xyplot.lines.group.11.panel.1.1.1.1" points="59.61,53.99 60,54 60.4,54.02 60.79,54.04 61.19,54.06 61.58,54.09 61.98,54.12 62.37,54.17 62.76,54.22 63.16,54.29 63.55,54.37 63.95,54.46 64.34,54.58 64.74,54.71 65.13,54.88 65.53,55.07 65.92,55.28 66.32,55.54 66.71,55.83 67.1,56.16 67.5,56.54 67.89,56.97 68.29,57.45 68.68,57.98 69.08,58.57 69.47,59.21 69.87,59.93 70.26,60.71 70.65,61.54 71.05,62.44 71.44,63.4 71.84,64.41 72.23,65.49 72.63,66.63 73.02,67.81 73.42,69.03 73.81,70.3 74.21,71.59 74.6,72.93 74.99,74.28 75.39,75.65 75.78,77.03 76.18,78.41 76.57,79.8 76.97,81.17 77.36,82.53 77.76,83.88 78.15,85.2 78.55,86.5 78.94,87.78 79.33,89.02 79.73,90.22 80.12,91.39 80.52,92.53 80.91,93.63 81.31,94.69 81.7,95.71 82.1,96.69 82.49,97.63 82.89,98.53 83.28,99.4 83.67,100.22 84.07,101.01 84.46,101.76 84.86,102.46 85.25,103.14 85.65,103.77 86.04,104.37 86.44,104.94 86.83,105.48 87.23,105.99 87.62,106.46 88.01,106.92 88.41,107.36 88.8,107.78 89.2,108.18 89.59,108.57 89.99,108.95 90.38,109.33 90.78,109.7 91.17,110.07 91.56,110.45 91.96,110.83 92.35,111.22 92.75,111.62 93.14,112.03 93.54,112.44 93.93,112.87 94.33,113.3 94.72,113.75 95.12,114.2 95.51,114.65 95.9,115.12 96.3,115.59 96.69,116.05 97.09,116.52 97.48,116.99 97.88,117.46 98.27,117.92 98.67,118.38 99.06,118.83 99.46,119.27 99.85,119.7 100.24,120.13 100.64,120.55 101.03,120.95 101.43,121.35 101.82,121.75 102.22,122.14 102.61,122.52 103.01,122.9 103.4,123.28 103.8,123.66 104.19,124.05 104.58,124.45 104.98,124.85 105.37,125.26 105.77,125.69 106.16,126.13 106.56,126.6 106.95,127.08 107.35,127.59 107.74,128.12 108.14,128.67 108.53,129.25 108.92,129.85 109.32,130.49 109.71,131.15 110.11,131.83 110.5,132.54 110.9,133.27 111.29,134.02 111.69,134.8 112.08,135.6 112.47,136.42 112.87,137.25 113.26,138.1 113.66,138.96 114.05,139.83 114.45,140.7 114.84,141.58 115.24,142.46 115.63,143.34 116.03,144.21 116.42,145.08 116.81,145.94 117.21,146.79 117.6,147.63 118,148.45 118.39,149.25 118.79,150.04 119.18,150.81 119.58,151.56 119.97,152.29 120.37,153 120.76,153.7 121.15,154.38 121.55,155.04 121.94,155.69 122.34,156.33 122.73,156.97 123.13,157.6 123.52,158.22 123.92,158.85 124.31,159.48 124.71,160.12 125.1,160.77 125.49,161.44 125.89,162.12 126.28,162.82 126.68,163.55 127.07,164.3 127.47,165.08 127.86,165.89 128.26,166.72 128.65,167.59 129.05,168.49 129.44,169.43 129.83,170.39 130.23,171.38 130.62,172.4 131.02,173.45 131.41,174.52 131.81,175.6 132.2,176.71 132.6,177.82 132.99,178.94 133.38,180.07 133.78,181.19 134.17,182.31 134.57,183.41 134.96,184.5 135.36,185.57 135.75,186.62 136.15,187.63 136.54,188.61 136.94,189.55 137.33,190.45 137.72,191.31 138.12,192.14 138.51,192.91 138.91,193.64 139.3,194.32 139.7,194.97 140.09,195.58 140.49,196.15 140.88,196.69 141.28,197.2 141.67,197.68 142.06,198.15 142.46,198.6 142.85,199.04 143.25,199.47 143.64,199.9 144.04,200.33 144.43,200.77 144.83,201.22 145.22,201.67 145.62,202.14 146.01,202.63 146.4,203.12 146.8,203.63 147.19,204.15 147.59,204.69 147.98,205.23 148.38,205.77 148.77,206.32 149.17,206.87 149.56,207.42 149.96,207.97 150.35,208.5 150.74,209.03 151.14,209.54 151.53,210.05 151.93,210.53 152.32,211 152.72,211.46 153.11,211.89 153.51,212.31 153.9,212.71 154.29,213.09 154.69,213.46 155.08,213.81 155.48,214.14 155.87,214.45 156.27,214.75 156.66,215.03 157.06,215.29 157.45,215.53 157.85,215.76 158.24,215.96 158.63,216.14 159.03,216.31 159.42,216.45 159.82,216.58 160.21,216.68 160.61,216.77 161,216.83 161.4,216.87 161.79,216.89 162.19,216.89 162.58,216.88 162.97,216.84 163.37,216.78 163.76,216.7 164.16,216.6 164.55,216.47 164.95,216.33 165.34,216.17 165.74,215.97 166.13,215.75 166.53,215.5 166.92,215.23 167.31,214.92 167.71,214.58 168.1,214.2 168.5,213.78 168.89,213.32 169.29,212.82 169.68,212.28 170.08,211.7 170.47,211.07 170.87,210.4 171.26,209.7 171.65,208.95 172.05,208.16 172.44,207.35 172.84,206.49 173.23,205.6 173.63,204.69 174.02,203.75 174.42,202.78 174.81,201.8 175.2,200.79 175.6,199.76 175.99,198.72 176.39,197.66 176.78,196.58 177.18,195.49 177.57,194.38 177.97,193.26 178.36,192.11 178.76,190.94 179.15,189.74 179.54,188.53 179.94,187.28 180.33,186.01 180.73,184.7 181.12,183.37 181.52,182 181.91,180.6 182.31,179.17 182.7,177.71 183.1,176.22 183.49,174.7 183.88,173.15 184.28,171.58 184.67,169.99 185.07,168.38 185.46,166.76 185.86,165.13 186.25,163.49 186.65,161.85 187.04,160.21 187.44,158.58 187.83,156.95 188.22,155.33 188.62,153.72 189.01,152.13 189.41,150.55 189.8,148.99 190.2,147.46 190.59,145.94 190.99,144.44 191.38,142.97 191.77,141.51 192.17,140.07 192.56,138.66 192.96,137.27 193.35,135.9 193.75,134.55 194.14,133.21 194.54,131.9 194.93,130.6 195.33,129.32 195.72,128.05 196.11,126.81 196.51,125.57 196.9,124.35 197.3,123.14 197.69,121.95 198.09,120.76 198.48,119.59 198.88,118.44 199.27,117.29 199.67,116.15 200.06,115.03 200.45,113.93 200.85,112.83 201.24,111.75 201.64,110.69 202.03,109.63 202.43,108.6 202.82,107.58 203.22,106.58 203.61,105.59 204.01,104.62 204.4,103.68 204.79,102.75 205.19,101.84 205.58,100.95 205.98,100.09 206.37,99.24 206.77,98.42 207.16,97.61 207.56,96.83 207.95,96.07 208.35,95.33 208.74,94.6 209.13,93.9 209.53,93.21 209.92,92.55 210.32,91.9 210.71,91.26 211.11,90.64 211.5,90.03 211.9,89.43 212.29,88.84 212.68,88.27 213.08,87.7 213.47,87.14 213.87,86.59 214.26,86.04 214.66,85.5 215.05,84.97 215.45,84.44 215.84,83.92 216.24,83.4 216.63,82.89 217.02,82.38 217.42,81.88 217.81,81.38 218.21,80.89 218.6,80.41 219,79.93 219.39,79.45 219.79,78.99 220.18,78.53 220.58,78.08 220.97,77.63 221.36,77.19 221.76,76.76 222.15,76.33 222.55,75.91 222.94,75.49 223.34,75.08 223.73,74.67 224.13,74.26 224.52,73.86 224.92,73.47 225.31,73.08 225.7,72.69 226.1,72.31 226.49,71.93 226.89,71.56 227.28,71.2 227.68,70.84 228.07,70.5 228.47,70.16 228.86,69.83 229.26,69.51 229.65,69.21 230.04,68.91 230.44,68.63 230.83,68.36 231.23,68.11 231.62,67.86 232.02,67.64 232.41,67.42 232.81,67.22 233.2,67.03 233.59,66.86 233.99,66.69 234.38,66.53 234.78,66.39 235.17,66.25 235.57,66.11 235.96,65.98 236.36,65.85 236.75,65.73 237.15,65.6 237.54,65.47 237.93,65.34 238.33,65.2 238.72,65.05 239.12,64.9 239.51,64.73 239.91,64.56 240.3,64.37 240.7,64.17 241.09,63.96 241.49,63.74 241.88,63.5 242.27,63.25 242.67,62.98 243.06,62.7 243.46,62.41 243.85,62.11 244.25,61.79 244.64,61.47 245.04,61.13 245.43,60.79 245.83,60.44 246.22,60.09 246.61,59.74 247.01,59.38 247.4,59.03 247.8,58.68 248.19,58.34 248.59,58.01 248.98,57.68 249.38,57.36 249.77,57.06 250.17,56.77 250.56,56.5 250.95,56.24 251.35,55.99 251.74,55.76 252.14,55.56 252.53,55.36 252.93,55.19 253.32,55.03 253.72,54.88 254.11,54.75 254.5,54.64 254.9,54.53 255.29,54.45 255.69,54.37 256.08,54.3 256.48,54.24 256.87,54.19 257.27,54.15 257.66,54.11 258.06,54.08 258.45,54.06 258.84,54.04 259.24,54.02 259.63,54.01 260.03,53.99 260.42,53.99 260.82,53.98 261.21,53.97" stroke-dasharray="none" stroke="rgb(31,120,180)" stroke-width="0.75" opacity="1" stroke-opacity="1" fill="none"/>
          </g>
          <g id="Fig:densplot_01.xyplot.lines.group.12.panel.1.1.1">
            <polyline id="Fig:densplot_01.xyplot.lines.group.12.panel.1.1.1.1" points="59.21,54 59.61,54.02 60,54.03 60.4,54.06 60.8,54.08 61.19,54.12 61.59,54.16 61.98,54.22 62.38,54.28 62.78,54.36 63.17,54.46 63.57,54.57 63.96,54.71 64.36,54.87 64.76,55.06 65.15,55.28 65.55,55.53 65.94,55.83 66.34,56.17 66.74,56.55 67.13,56.99 67.53,57.48 67.92,58.02 68.32,58.63 68.72,59.31 69.11,60.05 69.51,60.86 69.9,61.73 70.3,62.68 70.7,63.7 71.09,64.78 71.49,65.94 71.88,67.15 72.28,68.41 72.68,69.73 73.07,71.11 73.47,72.53 73.86,73.98 74.26,75.46 74.66,76.96 75.05,78.47 75.45,79.99 75.84,81.51 76.24,83.02 76.64,84.51 77.03,85.98 77.43,87.42 77.82,88.83 78.22,90.19 78.62,91.5 79.01,92.78 79.41,94 79.8,95.18 80.2,96.3 80.6,97.37 80.99,98.38 81.39,99.35 81.79,100.27 82.18,101.15 82.58,101.98 82.97,102.76 83.37,103.51 83.77,104.22 84.16,104.9 84.56,105.55 84.95,106.17 85.35,106.77 85.75,107.34 86.14,107.89 86.54,108.42 86.93,108.93 87.33,109.43 87.73,109.91 88.12,110.37 88.52,110.81 88.91,111.24 89.31,111.66 89.71,112.06 90.1,112.44 90.5,112.8 90.89,113.15 91.29,113.49 91.69,113.81 92.08,114.12 92.48,114.41 92.87,114.68 93.27,114.95 93.67,115.21 94.06,115.46 94.46,115.7 94.85,115.94 95.25,116.18 95.65,116.42 96.04,116.66 96.44,116.91 96.83,117.16 97.23,117.43 97.63,117.71 98.02,118.01 98.42,118.32 98.81,118.65 99.21,119 99.61,119.36 100,119.76 100.4,120.17 100.79,120.6 101.19,121.06 101.59,121.54 101.98,122.03 102.38,122.56 102.77,123.1 103.17,123.66 103.57,124.24 103.96,124.84 104.36,125.45 104.75,126.09 105.15,126.74 105.55,127.41 105.94,128.1 106.34,128.8 106.73,129.52 107.13,130.25 107.53,130.99 107.92,131.75 108.32,132.52 108.71,133.3 109.11,134.08 109.51,134.87 109.9,135.67 110.3,136.47 110.69,137.27 111.09,138.06 111.49,138.86 111.88,139.64 112.28,140.42 112.67,141.19 113.07,141.96 113.47,142.71 113.86,143.45 114.26,144.18 114.65,144.89 115.05,145.59 115.45,146.29 115.84,146.97 116.24,147.64 116.63,148.3 117.03,148.95 117.43,149.6 117.82,150.24 118.22,150.87 118.61,151.5 119.01,152.12 119.41,152.74 119.8,153.35 120.2,153.96 120.59,154.57 120.99,155.18 121.39,155.8 121.78,156.41 122.18,157.03 122.57,157.65 122.97,158.27 123.37,158.91 123.76,159.55 124.16,160.2 124.55,160.87 124.95,161.56 125.35,162.26 125.74,162.97 126.14,163.71 126.54,164.46 126.93,165.24 127.33,166.04 127.72,166.86 128.12,167.69 128.52,168.55 128.91,169.42 129.31,170.31 129.7,171.21 130.1,172.11 130.5,173.03 130.89,173.95 131.29,174.86 131.68,175.78 132.08,176.69 132.48,177.58 132.87,178.47 133.27,179.34 133.66,180.19 134.06,181.02 134.46,181.83 134.85,182.62 135.25,183.39 135.64,184.14 136.04,184.86 136.44,185.56 136.83,186.23 137.23,186.89 137.62,187.53 138.02,188.15 138.42,188.76 138.81,189.35 139.21,189.93 139.6,190.51 140,191.08 140.4,191.65 140.79,192.21 141.19,192.77 141.58,193.34 141.98,193.91 142.38,194.49 142.77,195.07 143.17,195.66 143.56,196.26 143.96,196.87 144.36,197.49 144.75,198.11 145.15,198.75 145.54,199.38 145.94,200.02 146.34,200.67 146.73,201.31 147.13,201.95 147.52,202.58 147.92,203.21 148.32,203.83 148.71,204.43 149.11,205.01 149.5,205.58 149.9,206.12 150.3,206.65 150.69,207.15 151.09,207.61 151.48,208.06 151.88,208.48 152.28,208.87 152.67,209.24 153.07,209.58 153.46,209.89 153.86,210.19 154.26,210.46 154.65,210.72 155.05,210.96 155.44,211.19 155.84,211.4 156.24,211.61 156.63,211.81 157.03,212 157.42,212.2 157.82,212.38 158.22,212.57 158.61,212.75 159.01,212.93 159.4,213.1 159.8,213.27 160.2,213.43 160.59,213.58 160.99,213.71 161.38,213.83 161.78,213.93 162.18,214 162.57,214.05 162.97,214.07 163.36,214.05 163.76,214 164.16,213.9 164.55,213.76 164.95,213.58 165.34,213.35 165.74,213.07 166.14,212.74 166.53,212.36 166.93,211.94 167.32,211.47 167.72,210.95 168.12,210.39 168.51,209.78 168.91,209.14 169.3,208.46 169.7,207.74 170.1,207 170.49,206.22 170.89,205.41 171.29,204.58 171.68,203.72 172.08,202.84 172.47,201.93 172.87,201 173.27,200.05 173.66,199.08 174.06,198.08 174.45,197.07 174.85,196.03 175.25,194.97 175.64,193.89 176.04,192.78 176.43,191.66 176.83,190.51 177.23,189.35 177.62,188.16 178.02,186.96 178.41,185.73 178.81,184.49 179.21,183.24 179.6,181.97 180,180.68 180.39,179.38 180.79,178.07 181.19,176.75 181.58,175.42 181.98,174.08 182.37,172.72 182.77,171.36 183.17,169.99 183.56,168.61 183.96,167.22 184.35,165.82 184.75,164.41 185.15,162.99 185.54,161.56 185.94,160.12 186.33,158.67 186.73,157.22 187.13,155.76 187.52,154.3 187.92,152.83 188.31,151.37 188.71,149.91 189.11,148.45 189.5,147 189.9,145.56 190.29,144.13 190.69,142.72 191.09,141.32 191.48,139.95 191.88,138.59 192.27,137.26 192.67,135.96 193.07,134.68 193.46,133.43 193.86,132.21 194.25,131.01 194.65,129.83 195.05,128.69 195.44,127.56 195.84,126.45 196.23,125.37 196.63,124.3 197.03,123.25 197.42,122.21 197.82,121.19 198.21,120.17 198.61,119.17 199.01,118.17 199.4,117.19 199.8,116.21 200.19,115.24 200.59,114.28 200.99,113.33 201.38,112.38 201.78,111.44 202.17,110.52 202.57,109.61 202.97,108.71 203.36,107.82 203.76,106.94 204.15,106.07 204.55,105.22 204.95,104.38 205.34,103.56 205.74,102.74 206.13,101.94 206.53,101.15 206.93,100.37 207.32,99.6 207.72,98.84 208.11,98.09 208.51,97.34 208.91,96.61 209.3,95.87 209.7,95.15 210.09,94.44 210.49,93.73 210.89,93.02 211.28,92.33 211.68,91.64 212.07,90.97 212.47,90.31 212.87,89.66 213.26,89.02 213.66,88.39 214.05,87.78 214.45,87.19 214.85,86.61 215.24,86.05 215.64,85.5 216.04,84.97 216.43,84.46 216.83,83.97 217.22,83.49 217.62,83.02 218.02,82.57 218.41,82.13 218.81,81.7 219.2,81.29 219.6,80.88 220,80.47 220.39,80.07 220.79,79.68 221.18,79.29 221.58,78.9 221.98,78.51 222.37,78.11 222.77,77.72 223.16,77.33 223.56,76.93 223.96,76.54 224.35,76.14 224.75,75.74 225.14,75.34 225.54,74.94 225.94,74.54 226.33,74.13 226.73,73.74 227.12,73.34 227.52,72.95 227.92,72.56 228.31,72.18 228.71,71.8 229.1,71.43 229.5,71.07 229.9,70.72 230.29,70.38 230.69,70.04 231.08,69.72 231.48,69.41 231.88,69.11 232.27,68.82 232.67,68.54 233.06,68.27 233.46,68.02 233.86,67.78 234.25,67.55 234.65,67.33 235.04,67.13 235.44,66.93 235.84,66.74 236.23,66.56 236.63,66.39 237.02,66.22 237.42,66.06 237.82,65.9 238.21,65.75 238.61,65.59 239,65.42 239.4,65.26 239.8,65.09 240.19,64.9 240.59,64.71 240.98,64.51 241.38,64.3 241.78,64.07 242.17,63.82 242.57,63.56 242.96,63.29 243.36,63 243.76,62.69 244.15,62.37 244.55,62.04 244.94,61.69 245.34,61.34 245.74,60.97 246.13,60.6 246.53,60.22 246.92,59.84 247.32,59.46 247.72,59.09 248.11,58.72 248.51,58.35 248.9,58 249.3,57.66 249.7,57.33 250.09,57.01 250.49,56.71 250.88,56.43 251.28,56.17 251.68,55.92 252.07,55.69 252.47,55.48 252.86,55.29 253.26,55.12 253.66,54.96 254.05,54.82 254.45,54.7 254.84,54.58 255.24,54.49 255.64,54.4 256.03,54.33 256.43,54.27 256.82,54.21 257.22,54.17 257.62,54.13 258.01,54.09 258.41,54.07 258.8,54.05 259.2,54.03 259.6,54.01 259.99,54 260.39,53.99 260.78,53.98 261.18,53.98 261.58,53.97" stroke-dasharray="none" stroke="rgb(31,120,180)" stroke-width="0.75" opacity="1" stroke-opacity="1" fill="none"/>
          </g>
        </g>
        <g id="Fig:densplot_01.panel.1.1.off.vp.2">
          <g id="Fig:densplot_01.border.panel.1.1.1">
            <rect id="Fig:densplot_01.border.panel.1.1.1.1" x="44.8" y="42.19" width="231.2" height="191.81" transform="" stroke="rgb(0,0,0)" stroke-dasharray="none" stroke-width="0.75" opacity="1" fill="none" stroke-opacity="1" fill-opacity="0"/>
          </g>
        </g>
        <g id="Fig:densplot_01..1"/>
      </g>
    </g>
  </g>
</svg>